<svg width="10" height="10" viewBox="0 0 10 10" fill="none" xmlns="http://www.w3.org/2000/svg">
<g clip-path="url(#clip0_134_1137)">
<path d="M0.159839 7.45958L0.487403 7.78942C0.590493 7.89243 0.727648 7.94918 0.874235 7.94918C1.02074 7.94918 1.15806 7.89243 1.26115 7.78942L4.99776 4.05265L8.73869 7.79357C8.84162 7.89658 8.97893 7.95325 9.12544 7.95325C9.27195 7.95325 9.40934 7.89658 9.51235 7.79357L9.84 7.46576C10.0533 7.25259 10.0533 6.90535 9.84 6.69218L5.38598 2.22214C5.28305 2.11922 5.1459 2.04669 4.99809 2.04669L4.99638 2.04669C4.8498 2.04669 4.71264 2.1193 4.60971 2.22214L0.159839 6.68007C0.0567489 6.78299 0.000162761 6.92429 1.44982e-07 7.0708C1.32167e-07 7.21739 0.0567488 7.35674 0.159839 7.45958Z" fill="white"/>
</g>
<defs>
<clipPath id="clip0_134_1137">
<rect width="10" height="10" fill="white" transform="translate(10 10) rotate(-180)"/>
</clipPath>
</defs>
</svg>
