<svg width="20" height="21" viewBox="0 0 20 21" fill="none" xmlns="http://www.w3.org/2000/svg">
<g clip-path="url(#clip0_201_1659)">
<path d="M19.8005 7.95017L13.086 2.91527C12.9072 2.78117 12.6609 2.78117 12.482 2.91527L11.3782 3.74297L10.2745 2.91527C10.0956 2.78117 9.84928 2.78117 9.67044 2.91527L8.59417 3.72231L7.5179 2.91527C7.33906 2.78117 7.09273 2.78117 6.91389 2.91527L0.199476 7.95017C0.0738721 8.04444 0 8.19192 0 8.34839V16.8254C0 17.1009 0.224554 17.3242 0.501557 17.3242H3.25811H6.06955H13.9304H16.687H19.4984C19.7754 17.3242 20 17.1009 20 16.8254V8.34839C20 8.19192 19.9261 8.04444 19.8005 7.95017ZM18.9969 16.3267H17.1886V8.34839C17.1886 8.19185 17.1147 8.04444 16.989 7.95017L12.2113 4.36761L12.784 3.93812L18.9969 8.59698V16.3267ZM14.432 16.3267V8.34839C14.432 8.19185 14.3581 8.04444 14.2325 7.95017L9.42726 4.34702L9.97252 3.93819L16.1854 8.59705V16.3268H14.432V16.3267ZM8.03737 16.3266H6.57111H6.39456V12.71H8.03737V16.3266ZM9.04049 16.3266V12.2112C9.04049 11.9358 8.81593 11.7125 8.53893 11.7125H5.893C5.616 11.7125 5.39145 11.9358 5.39145 12.2112V16.3266H3.75967H1.00311V8.59691L7.21597 3.93805L13.4289 8.59691V16.3266H9.04049Z" fill="#074799"/>
</g>
<defs>
<clipPath id="clip0_201_1659">
<rect width="20" height="19.8879" fill="white" transform="translate(0 0.125488)"/>
</clipPath>
</defs>
</svg>
