<svg width="20" height="17" viewBox="0 0 20 17" fill="none" xmlns="http://www.w3.org/2000/svg">
<path d="M17.8895 3.61743H14.5926L14.1676 1.53376C14.0614 1.01272 13.5909 0.634521 13.049 0.634521H6.68343C6.14157 0.634521 5.67109 1.01272 5.56485 1.53376L5.13984 3.61743H1.84296C0.899447 3.61743 0.131836 4.37013 0.131836 5.29532V14.9898C0.131836 15.915 0.899447 16.6677 1.84296 16.6677H17.8895C18.833 16.6677 19.6006 15.915 19.6006 14.9898V5.29532C19.6006 4.37013 18.833 3.61743 17.8895 3.61743ZM6.68343 1.75311H13.049L13.4293 3.61743H6.30318L6.68343 1.75311Z" fill="black"/>
<path d="M9.8657 6.3606C7.65552 6.3606 5.85742 8.15869 5.85742 10.3689C5.85742 12.5791 7.65552 14.3772 9.8657 14.3772C12.0759 14.3772 13.874 12.5791 13.874 10.3689C13.874 8.15869 12.0759 6.3606 9.8657 6.3606Z" fill="white"/>
</svg>
