<svg width="23" height="23" viewBox="0 0 23 23" fill="none" xmlns="http://www.w3.org/2000/svg">
<g clip-path="url(#clip0_102_2604)">
<path d="M21.3132 9.18683L20.8391 8.68485L19.175 4.1996C18.8915 3.44199 18.1664 2.94001 17.3576 2.93536H5.47209C4.66331 2.93536 3.93818 3.44199 3.65464 4.1996L2.01383 8.62908L1.33054 9.2612C0.735569 9.76782 0.391602 10.5115 0.391602 11.2923V17.8273C0.39625 18.8964 1.26546 19.7609 2.33455 19.7609H3.56168C4.63077 19.7609 5.49998 18.8964 5.50463 17.8273V16.8792H17.0322V17.8273C17.0368 18.8964 17.9061 19.7609 18.9751 19.7609H20.2023C21.2714 19.7609 22.1406 18.8964 22.1452 17.8273V11.1204C22.1406 10.3906 21.8431 9.69346 21.3132 9.18683ZM4.52851 4.51566C4.67725 4.12059 5.05375 3.86495 5.47209 3.86495H17.3622C17.7806 3.86495 18.1571 4.12523 18.3058 4.51566L19.756 8.41992H18.673C18.4174 6.67695 16.7951 5.47313 15.0521 5.73342C13.6622 5.93793 12.5699 7.03019 12.3654 8.41992H3.07827L4.52851 4.51566ZM17.7248 8.41992H13.3043C13.56 7.19752 14.7592 6.41666 15.9817 6.6723C16.8556 6.85822 17.5388 7.54146 17.7248 8.41992ZM4.57499 17.8273C4.57034 18.3851 4.11946 18.8313 3.56168 18.8313H2.33455C1.77677 18.8313 1.32589 18.3851 1.32124 17.8273V16.6096C1.60014 16.7908 1.96734 16.8792 2.33455 16.8792H4.57499V17.8273ZM21.2156 17.8273C21.2109 18.3851 20.7601 18.8313 20.2023 18.8313H18.9751C18.4174 18.8313 17.9665 18.3804 17.9618 17.8273V16.8792H20.2023C20.5695 16.8792 20.9367 16.7908 21.2156 16.6096V17.8273ZM20.2023 15.9496H2.33455C1.78142 15.9542 1.32589 15.5127 1.32124 14.9549V11.2923C1.32124 10.7811 1.54901 10.293 1.93946 9.96304C1.9441 9.95839 1.9534 9.94909 1.95805 9.94444L2.5902 9.34951H20.193L20.6392 9.82825C20.6438 9.83754 20.6578 9.84219 20.6624 9.85149C21.0111 10.1815 21.2109 10.6416 21.2109 11.1204V14.9549H21.2156C21.2109 15.508 20.7554 15.9542 20.2023 15.9496Z" fill="#696969"/>
<path d="M6.52715 11.2087H3.04099C2.78534 11.2087 2.57617 11.4178 2.57617 11.6735V14.0904C2.57617 14.346 2.78534 14.5552 3.04099 14.5552H6.52715C6.7828 14.5552 6.99197 14.346 6.99197 14.0904V11.6735C6.99197 11.4178 6.7828 11.2087 6.52715 11.2087ZM6.06233 13.6256H3.50581V12.1383H6.06233V13.6256Z" fill="#696969"/>
<path d="M19.4959 11.2087H16.0097C15.7541 11.2087 15.5449 11.4178 15.5449 11.6735V14.0904C15.5449 14.346 15.7541 14.5552 16.0097 14.5552H19.4959C19.7516 14.5552 19.9607 14.346 19.9607 14.0904V11.6735C19.9607 11.4178 19.7516 11.2087 19.4959 11.2087ZM19.0311 13.6256H16.4746V12.1383H19.0311V13.6256Z" fill="#696969"/>
<path d="M13.5136 13.1608H9.02341C8.76776 13.1608 8.55859 13.37 8.55859 13.6256C8.55859 13.8813 8.76776 14.0904 9.02341 14.0904H13.5136C13.7692 14.0904 13.9784 13.8813 13.9784 13.6256C13.9784 13.37 13.7692 13.1608 13.5136 13.1608Z" fill="#696969"/>
<path d="M13.5136 11.72H9.02341C8.76776 11.72 8.55859 11.9291 8.55859 12.1848C8.55859 12.4404 8.76776 12.6496 9.02341 12.6496H13.5136C13.7692 12.6496 13.9784 12.4404 13.9784 12.1848C13.9784 11.9291 13.7692 11.72 13.5136 11.72Z" fill="#696969"/>
</g>
<defs>
<clipPath id="clip0_102_2604">
<rect width="21.7536" height="21.7523" fill="white" transform="translate(0.391602 0.471985)"/>
</clipPath>
</defs>
</svg>
