<svg width="251" height="78" viewBox="0 0 251 78" fill="none" xmlns="http://www.w3.org/2000/svg">
<g clip-path="url(#clip0_302_31)">
<path d="M1.29602 0.887939H7.41897V14.0115H23.6856V0.887939H29.8085V33.5437H23.6856V19.5017H7.47V33.5539H1.34705L1.29602 0.887939Z" fill="#174996"/>
<path d="M48.3713 0.887939H54.7391L67.1279 33.5437H60.2702L57.4332 25.3185H45.2792L42.4422 33.5947H35.9723L48.3713 0.887939ZM55.6678 20.216L51.3613 7.53134L46.9936 20.216H55.6678Z" fill="#174996"/>
<path d="M74.404 0.887939H80.1391L89.2011 16.3178L98.1202 0.887939H103.845L105.417 33.5437H99.406L98.3345 10.9296L90.4971 24.196H87.6091L79.7207 11.2153L78.639 33.5028H72.863L74.404 0.887939Z" fill="#174996"/>
<path d="M114.346 0.887939H120.52V33.5437H114.346V0.887939Z" fill="#174996"/>
<path d="M129.827 0.887939H136.001V28.0738H152.114V33.5539H129.827V0.887939Z" fill="#174996"/>
<path d="M159.901 6.31695H148.828V0.887939H177.147V6.31695H166.075V33.5539H159.952L159.901 6.31695Z" fill="#174996"/>
<path d="M197.179 34.4415C194.889 34.4605 192.619 34.0017 190.515 33.0945C188.498 32.2221 186.668 30.9676 185.127 29.4003C183.584 27.8194 182.354 25.9598 181.505 23.9202C179.735 19.6185 179.735 14.7923 181.505 10.4906C182.348 8.45875 183.571 6.60594 185.107 5.03095C186.646 3.46693 188.477 2.21893 190.495 1.35717C192.608 0.46803 194.877 0.0100098 197.169 0.0100098C199.461 0.0100098 201.73 0.46803 203.843 1.35717C206.414 2.48777 208.673 4.22577 210.424 6.42182C212.175 8.61787 213.367 11.2063 213.897 13.9646C214.427 16.723 214.279 19.5688 213.466 22.2575C212.654 24.9461 211.2 27.3973 209.231 29.4003C207.691 30.9713 205.861 32.2292 203.843 33.1047C201.739 34.0084 199.469 34.4637 197.179 34.4415ZM197.179 28.6043C198.683 28.6267 200.173 28.3092 201.537 27.6756C202.813 27.0776 203.95 26.219 204.874 25.155C205.799 24.0656 206.512 22.8127 206.976 21.4609C207.956 18.593 207.956 15.4811 206.976 12.6132C206.511 11.2832 205.798 10.0537 204.874 8.99045C203.951 7.93579 202.813 7.09036 201.537 6.51066C200.157 5.91154 198.668 5.60239 197.164 5.60239C195.66 5.60239 194.171 5.91154 192.791 6.51066C191.527 7.09619 190.401 7.94109 189.485 8.99045C188.558 10.0598 187.845 11.2964 187.383 12.6336C186.403 15.5015 186.403 18.6134 187.383 21.4813C187.847 22.8331 188.56 24.086 189.485 25.1754C190.402 26.2336 191.528 27.0916 192.791 27.6961C194.166 28.3268 195.667 28.6374 197.179 28.6043Z" fill="#174996"/>
<path d="M222.212 0.887939H228.427L244.255 24.1041V0.887939H250.275V33.5437H244.204L228.233 10.0111V33.4824H222.212V0.887939Z" fill="#174996"/>
<path d="M1.62256 42.4932H7.05157C7.9455 42.4672 8.83509 42.627 9.66403 42.9626C10.3244 43.2264 10.9198 43.6303 11.4091 44.1464C11.8347 44.6036 12.1643 45.1414 12.3785 45.7282C12.5739 46.2543 12.6775 46.81 12.6847 47.3712C12.7034 48.3228 12.4711 49.2626 12.0112 50.0959C11.5357 50.9182 10.8248 51.5793 9.97018 51.994L13.7358 58.8313H10.2661L6.95973 52.392H4.633V58.8313H1.66338L1.62256 42.4932ZM7.05157 49.8101C7.38696 49.8305 7.72288 49.7802 8.03756 49.6624C8.35224 49.5446 8.63866 49.362 8.87825 49.1264C9.30305 48.6781 9.53404 48.0805 9.52116 47.463C9.53454 47.1452 9.48055 46.8281 9.36271 46.5326C9.24487 46.2372 9.06586 45.97 8.83743 45.7486C8.59949 45.5239 8.31875 45.3493 8.01194 45.2354C7.70513 45.1214 7.37852 45.0703 7.05157 45.0853H4.58198V49.8101H7.05157Z" fill="#F79520"/>
<path d="M17.3484 42.4932H27.9309V45.2077H20.4303V49.0549H25.9409V51.8511H20.4303V56.1167H28.4819V58.8823H17.3484V42.4932Z" fill="#F79520"/>
<path d="M37.2377 42.4932H40.4217L46.6161 58.821H43.1872L41.7483 54.688H35.6254L34.1967 58.8312H30.9719L37.2377 42.4932ZM40.8809 52.147L38.6868 45.7996L36.5132 52.147H40.8809Z" fill="#F79520"/>
<path d="M49.8204 42.4932H52.8819V56.0861H60.9336V58.8312H49.8204V42.4932Z" fill="#F79520"/>
<path d="M70.5465 42.4932H81.1188V45.2077H73.6284V49.0549H79.139V51.8511H73.6284V56.1167H81.6903V58.8823H70.5465V42.4932Z" fill="#F79520"/>
<path d="M87.0275 54.2289C87.2453 54.4797 87.477 54.7182 87.7214 54.9432C88.0045 55.2053 88.3083 55.4442 88.6297 55.6576C88.9793 55.8876 89.3564 56.0727 89.7522 56.2086C90.2048 56.3655 90.6815 56.4415 91.1605 56.4331C91.933 56.4912 92.6988 56.2541 93.3035 55.7698C93.5278 55.5701 93.7066 55.3248 93.8281 55.0502C93.9496 54.7756 94.0108 54.4781 94.0077 54.1779C94.0107 53.8612 93.9445 53.5478 93.8138 53.2594C93.6615 52.9656 93.4322 52.7187 93.1504 52.5451C92.7708 52.3103 92.3627 52.1251 91.9361 51.994C91.3302 51.8037 90.7134 51.6504 90.089 51.5348C89.4061 51.4099 88.748 51.1755 88.1398 50.8408C87.6256 50.5613 87.1658 50.1914 86.7826 49.7489C86.4271 49.3309 86.1536 48.8497 85.9764 48.3304C85.7944 47.8265 85.7011 47.2947 85.7009 46.7589C85.6965 46.1497 85.8145 45.5459 86.0478 44.9832C86.2712 44.413 86.6199 43.9003 87.0683 43.4831C87.5892 43.0321 88.1921 42.6857 88.844 42.4626C89.6524 42.1908 90.5016 42.0596 91.3544 42.0748C92.1069 42.0556 92.8577 42.1555 93.579 42.3708C94.127 42.5299 94.6518 42.7598 95.1404 43.0545C95.5108 43.2666 95.8536 43.5236 96.1609 43.8199L96.6507 44.3709L94.6097 46.2895L94.222 45.9323C94.0152 45.7429 93.7895 45.5754 93.5484 45.4323C93.2257 45.2458 92.8835 45.0952 92.5279 44.9832C92.1157 44.8514 91.6851 44.7859 91.2523 44.7893C90.8777 44.7839 90.505 44.8426 90.1502 44.9628C89.8712 45.0628 89.612 45.2113 89.3848 45.4016C89.1914 45.568 89.0349 45.7732 88.9256 46.0037C88.838 46.2 88.7894 46.4114 88.7827 46.6262C88.7754 46.8973 88.8313 47.1663 88.946 47.412C89.0707 47.6617 89.2525 47.8784 89.4767 48.0447C89.7856 48.2762 90.1303 48.4554 90.4972 48.5754C91.045 48.7549 91.6041 48.8981 92.1708 49.004C92.8026 49.1346 93.4184 49.3331 94.0077 49.5958C94.5788 49.8457 95.1033 50.1907 95.5588 50.6163C96.0146 51.0482 96.3821 51.5646 96.6405 52.1369C96.9227 52.8152 97.0583 53.5455 97.0385 54.2799C97.0484 54.965 96.8982 55.6429 96.5997 56.2597C96.3059 56.8692 95.8889 57.4113 95.3751 57.8516C94.8302 58.3242 94.1997 58.6879 93.5178 58.9231C92.7592 59.1821 91.962 59.3098 91.1605 59.3007C90.412 59.3081 89.6663 59.2084 88.946 59.0048C88.3231 58.8288 87.7235 58.5787 87.1602 58.2598C86.6621 57.9755 86.1996 57.633 85.7825 57.2393C85.4383 56.923 85.1177 56.5819 84.8232 56.2188L87.0275 54.2289Z" fill="#F79520"/>
<path d="M105.08 45.2077H99.5387V42.4932H113.693V45.2077H108.162V58.8312H105.1L105.08 45.2077Z" fill="#F79520"/>
<path d="M119.377 42.4932H122.561L128.755 58.821H125.326L123.908 54.6778H117.836L116.418 58.821H113.183L119.377 42.4932ZM123.03 52.147L120.877 45.7996L118.693 52.147H123.03Z" fill="#F79520"/>
<path d="M133.776 45.2077H128.245V42.4932H142.399V45.2077H136.868V58.8312H133.807L133.776 45.2077Z" fill="#F79520"/>
<path d="M146.053 42.4932H156.635V45.2077H149.135V49.0549H154.645V51.8511H149.135V56.1167H157.197V58.8823H146.053V42.4932Z" fill="#F79520"/>
<path d="M175.729 50.1879H181.556V56.9537C180.812 57.6244 179.96 58.1629 179.035 58.5457C177.755 59.0448 176.387 59.2775 175.014 59.2294C173.788 59.2536 172.569 59.0279 171.432 58.5661C170.43 58.167 169.522 57.5621 168.768 56.7904C168.014 56.0188 167.43 55.0975 167.054 54.0862C166.66 53.0217 166.463 51.8944 166.473 50.7593C166.464 49.6117 166.672 48.4726 167.085 47.4019C167.476 46.3836 168.062 45.4512 168.81 44.6568C169.561 43.8667 170.463 43.2352 171.463 42.7995C172.538 42.3326 173.7 42.0995 174.871 42.1158C175.614 42.1078 176.355 42.1935 177.076 42.3709C177.71 42.5292 178.323 42.7621 178.902 43.0648C179.427 43.3413 179.914 43.6843 180.351 44.0853C180.77 44.4765 181.149 44.9071 181.484 45.3711L179.3 47.3101C178.815 46.5951 178.199 45.9787 177.484 45.4936C176.699 45.0136 175.791 44.7758 174.871 44.8099C174.126 44.7984 173.388 44.9627 172.718 45.2895C172.091 45.5966 171.535 46.031 171.085 46.5651C170.63 47.1135 170.284 47.7439 170.065 48.4224C169.83 49.1475 169.713 49.9054 169.718 50.6675C169.701 51.4764 169.844 52.2808 170.136 53.035C170.407 53.7383 170.82 54.3777 171.351 54.9127C171.839 55.4205 172.431 55.8173 173.086 56.0761C173.75 56.3455 174.46 56.4841 175.178 56.4843C176.431 56.5644 177.67 56.1792 178.657 55.4026V52.8616H175.739L175.729 50.1879Z" fill="#F79520"/>
<path d="M186.219 42.4932H191.628C192.525 42.4672 193.418 42.627 194.251 42.9626C194.907 43.2291 195.498 43.6327 195.985 44.1464C196.411 44.6036 196.741 45.1414 196.955 45.7282C197.15 46.2542 197.254 46.81 197.261 47.3712C197.28 48.3228 197.047 49.2625 196.587 50.0959C196.112 50.9182 195.401 51.5793 194.546 51.994L198.322 58.8313H194.822L191.516 52.392H189.189V58.8313H186.229L186.219 42.4932ZM191.648 49.8407C191.984 49.8624 192.32 49.8127 192.635 49.6948C192.95 49.5769 193.236 49.3936 193.475 49.157C193.904 48.6993 194.143 48.0955 194.143 47.4681C194.143 46.8407 193.904 46.2369 193.475 45.7792C193.235 45.5542 192.953 45.3795 192.644 45.2656C192.336 45.1516 192.007 45.1007 191.679 45.1159H189.209V49.8101L191.648 49.8407Z" fill="#F79520"/>
<path d="M209.558 59.27C208.411 59.2795 207.274 59.0501 206.221 58.5965C205.213 58.1581 204.299 57.5311 203.527 56.7494C202.758 55.9559 202.145 55.0247 201.721 54.0043C200.836 51.8534 200.836 49.4403 201.721 47.2895C202.143 46.2765 202.752 45.3521 203.517 44.5647C204.288 43.7849 205.203 43.1612 206.211 42.7279C207.268 42.2751 208.408 42.0458 209.558 42.0543C210.702 42.0433 211.835 42.2728 212.885 42.7279C214.923 43.6055 216.541 45.2412 217.395 47.2895C218.28 49.4403 218.28 51.8534 217.395 54.0043C216.967 55.0252 216.351 55.9565 215.579 56.7494C214.81 57.5355 213.895 58.1631 212.885 58.5965C211.835 59.0516 210.702 59.2811 209.558 59.27ZM209.558 56.3616C210.287 56.3697 211.009 56.2186 211.673 55.919C212.338 55.6194 212.929 55.1784 213.405 54.6268C213.856 54.0791 214.202 53.4529 214.426 52.7797C214.671 52.0709 214.796 51.3256 214.793 50.5754C214.798 49.8217 214.674 49.0727 214.426 48.361C214.202 47.694 213.856 47.0745 213.405 46.5343C212.926 45.9845 212.335 45.5438 211.671 45.2418C211.008 44.9398 210.287 44.7835 209.558 44.7835C208.829 44.7835 208.108 44.9398 207.444 45.2418C206.781 45.5438 206.19 45.9845 205.711 46.5343C205.257 47.0721 204.91 47.6923 204.69 48.361C204.442 49.0727 204.318 49.8217 204.323 50.5754C204.32 51.3256 204.445 52.0709 204.69 52.7797C204.91 53.4547 205.256 54.0816 205.711 54.6268C206.184 55.1828 206.774 55.6268 207.439 55.9268C208.105 56.2268 208.828 56.3753 209.558 56.3616Z" fill="#F79520"/>
<path d="M222.1 42.4932H225.161V52.2695C225.155 52.8327 225.217 53.3946 225.345 53.9431C225.451 54.4069 225.656 54.8421 225.947 55.2187C226.237 55.5797 226.617 55.8577 227.049 56.0249C228.142 56.4084 229.334 56.4084 230.427 56.0249C230.859 55.8577 231.239 55.5797 231.529 55.2187C231.82 54.8421 232.025 54.4069 232.131 53.9431C232.259 53.3946 232.321 52.8327 232.315 52.2695V42.4932H235.376V52.8103C235.385 53.6769 235.237 54.538 234.937 55.3513C234.653 56.1151 234.212 56.8105 233.641 57.3923C233.041 57.9821 232.33 58.4469 231.549 58.7598C229.72 59.4268 227.715 59.4268 225.886 58.7598C225.103 58.4493 224.392 57.9842 223.794 57.3923C223.223 56.8105 222.782 56.1151 222.498 55.3513C222.198 54.538 222.05 53.6769 222.059 52.8103L222.1 42.4932Z" fill="#F79520"/>
<path d="M240.101 42.4932H245.336C246.3 42.4553 247.259 42.6368 248.143 43.0239C248.807 43.3211 249.397 43.7641 249.867 44.3199C250.28 44.7999 250.583 45.3641 250.755 45.9731C250.909 46.4969 250.992 47.0394 251 47.5855C251.022 48.3987 250.855 49.2059 250.51 49.9428C250.207 50.5633 249.771 51.1101 249.234 51.5449C248.712 51.964 248.112 52.2761 247.469 52.4634C246.84 52.6556 246.187 52.7552 245.53 52.7593H243.06V58.8823H240.101V42.4932ZM245.285 50.1571C245.628 50.1759 245.971 50.1251 246.294 50.0075C246.617 49.89 246.912 49.7083 247.163 49.4734C247.398 49.241 247.582 48.9621 247.703 48.6546C247.824 48.3471 247.88 48.0178 247.867 47.6875C247.877 47.3412 247.817 46.9965 247.691 46.6739C247.564 46.3514 247.374 46.0575 247.132 45.8098C246.888 45.5731 246.598 45.388 246.281 45.2653C245.964 45.1426 245.625 45.0848 245.285 45.0955H243.06V50.1979L245.285 50.1571Z" fill="#F79520"/>
<path d="M3.99012 72.6079L0 66.1379H2.38795L5.16369 70.7506L7.93943 66.1379H10.2355L6.225 72.6283V77.7307H3.99012V72.6079Z" fill="#174996"/>
<path d="M17.2565 77.9961C16.4614 78.0046 15.6728 77.8507 14.9393 77.5436C14.2058 77.2365 13.5428 76.7827 12.9909 76.2102C11.8536 75.0634 11.2155 73.5137 11.2155 71.8986C11.2155 70.2835 11.8536 68.7338 12.9909 67.587C13.5333 67.0285 14.1822 66.5844 14.8992 66.2808C15.6467 65.9645 16.45 65.8015 17.2616 65.8015C18.0733 65.8015 18.8766 65.9645 19.6241 66.2808C20.3382 66.5895 20.9862 67.033 21.5324 67.587C22.3759 68.454 22.9472 69.5489 23.1757 70.7367C23.4042 71.9245 23.2799 73.1533 22.8182 74.2713C22.5136 74.9917 22.0776 75.6492 21.5324 76.2102C20.9805 76.7827 20.3175 77.2365 19.584 77.5436C18.8505 77.8507 18.0619 78.0046 17.2668 77.9961H17.2565ZM17.2565 75.9551C17.7879 75.9606 18.314 75.8491 18.7975 75.6285C19.2491 75.4129 19.652 75.1073 19.9813 74.7305C20.3083 74.345 20.5609 73.902 20.7262 73.4243C21.0662 72.4076 21.0662 71.308 20.7262 70.2914C20.5579 69.818 20.3055 69.379 19.9813 68.9953C19.4476 68.4235 18.7488 68.0325 17.9822 67.877C17.2157 67.7215 16.4197 67.8092 15.7054 68.1279C15.2584 68.3327 14.8588 68.6281 14.5318 68.9953C14.2039 69.3764 13.9511 69.8162 13.7869 70.2914C13.433 71.3057 13.433 72.4099 13.7869 73.4243C13.9488 73.9036 14.2017 74.3471 14.5318 74.7305C14.8574 75.1071 15.2568 75.4127 15.7054 75.6285C16.1931 75.8452 16.7231 75.9498 17.2565 75.9347V75.9551Z" fill="#174996"/>
<path d="M26.2062 66.1379H28.4002V73.0569C28.3963 73.4582 28.4374 73.8587 28.5227 74.2508C28.6026 74.5764 28.7485 74.882 28.9513 75.1489C29.1573 75.4019 29.4242 75.5985 29.7269 75.7203C30.5031 75.9926 31.3488 75.9926 32.125 75.7203C32.4293 75.6014 32.6968 75.4043 32.9006 75.1489C33.1113 74.8869 33.2581 74.5794 33.3292 74.2508C33.4232 73.86 33.4678 73.4588 33.4619 73.0569V66.1379H35.6253V73.4447C35.6325 74.0578 35.5252 74.6669 35.309 75.2407C35.1139 75.7858 34.8002 76.2808 34.3905 76.6898C33.9745 77.1303 33.4703 77.478 32.9108 77.7103C32.2596 77.9581 31.5663 78.0759 30.8698 78.0573C30.1735 78.0744 29.4804 77.9565 28.8288 77.7103C28.2707 77.4754 27.767 77.128 27.3491 76.6898C26.9394 76.2808 26.6257 75.7858 26.4307 75.2407C26.2182 74.6659 26.1111 74.0575 26.1143 73.4447L26.2062 66.1379Z" fill="#174996"/>
<path d="M39.0645 66.1381H42.9015C43.5361 66.123 44.1674 66.234 44.7588 66.4646C45.2226 66.6567 45.64 66.9455 45.9834 67.3116C46.2854 67.6314 46.5182 68.0101 46.6671 68.424C46.8114 68.7951 46.8874 69.1892 46.8916 69.5873C46.9038 70.2645 46.7384 70.9329 46.412 71.5263C46.0688 72.1129 45.5567 72.5824 44.9425 72.8733L47.6162 77.7104H45.1568L42.8097 73.1489H41.1667V77.7104H39.0645V66.1381ZM42.9117 71.3426C43.1501 71.3575 43.389 71.3216 43.6124 71.2371C43.8359 71.1527 44.0388 71.0217 44.2077 70.8527C44.509 70.5281 44.6764 70.1016 44.6764 69.6588C44.6764 69.2159 44.509 68.7894 44.2077 68.4648C44.037 68.3057 43.8362 68.1822 43.6172 68.1016C43.3982 68.021 43.1653 67.9849 42.9321 67.9954H41.1871V71.3426H42.9117Z" fill="#174996"/>
<path d="M60.1172 77.9962C59.322 78.0047 58.5335 77.8508 57.7999 77.5437C57.0664 77.2366 56.4034 76.7828 55.8515 76.2103C55.3064 75.6493 54.8703 74.9918 54.5657 74.2714C53.9537 72.7453 53.9537 71.042 54.5657 69.5159C54.868 68.7996 55.3005 68.1456 55.8413 67.5871C56.6908 66.7296 57.778 66.1467 58.9624 65.9138C60.1468 65.681 61.3738 65.8088 62.4847 66.2809C63.198 66.5912 63.8457 67.0345 64.393 67.5871C65.2337 68.4559 65.8023 69.5513 66.0289 70.7388C66.2555 71.9263 66.1303 73.1541 65.6686 74.2714C65.3709 74.9931 64.938 75.6512 64.393 76.2103C63.8482 76.7686 63.2001 77.2157 62.4847 77.5267C61.7362 77.8444 60.9302 78.0042 60.1172 77.9962ZM60.1172 75.9552C60.6518 75.9605 61.1812 75.8491 61.6683 75.6286C62.1185 75.4154 62.5184 75.1094 62.8419 74.7306C63.172 74.3472 63.4249 73.9037 63.5868 73.4244C63.9407 72.41 63.9407 71.3058 63.5868 70.2915C63.4226 69.8163 63.1698 69.3765 62.8419 68.9954C62.517 68.6259 62.1169 68.3301 61.6683 68.128C61.1852 67.9185 60.6642 67.8104 60.1376 67.8104C59.611 67.8104 59.09 67.9185 58.6068 68.128C58.1613 68.3303 57.7645 68.6261 57.4435 68.9954C57.1125 69.3761 56.8563 69.8158 56.6883 70.2915C56.3483 71.3081 56.3483 72.4077 56.6883 73.4244C56.8537 73.9042 57.1101 74.3477 57.4435 74.7306C57.7631 75.1091 58.1597 75.4152 58.6068 75.6286C59.0826 75.8375 59.5976 75.9419 60.1172 75.9348V75.9552Z" fill="#174996"/>
<path d="M69.1689 66.1379H71.3426L76.9553 74.3631V66.1379H79.0881V77.7103H76.9553L71.3426 69.3627V77.6899H69.2098L69.1689 66.1379Z" fill="#174996"/>
<path d="M82.568 66.1379H90.0584V68.0667H84.7518V70.7914H88.6909V72.7303H84.7825V75.7918H90.487V77.7511H82.568V66.1379Z" fill="#174996"/>
<path d="M98.5999 74.4244C98.7559 74.6046 98.9229 74.775 99.0999 74.9347C99.3011 75.1207 99.516 75.2913 99.7429 75.4449C99.9912 75.6064 100.259 75.7367 100.539 75.8327C100.868 75.9411 101.213 75.9929 101.559 75.9858C102.105 76.033 102.647 75.8645 103.07 75.5164C103.23 75.3769 103.357 75.2042 103.444 75.0103C103.53 74.8164 103.573 74.606 103.57 74.3938C103.572 74.1681 103.523 73.9449 103.427 73.7407C103.321 73.5501 103.166 73.3915 102.978 73.2815C102.711 73.113 102.423 72.9825 102.121 72.8937C101.694 72.7508 101.257 72.6383 100.814 72.5569C100.333 72.4705 99.8679 72.3086 99.4367 72.0773C99.0516 71.8796 98.7058 71.6133 98.4162 71.2915C98.1636 70.9901 97.9697 70.644 97.8447 70.2711C97.5836 69.5003 97.6016 68.6623 97.8958 67.9035C98.0678 67.511 98.3259 67.1622 98.6509 66.883C99.0168 66.55 99.4476 66.2963 99.9163 66.1381C100.486 65.9343 101.088 65.8374 101.692 65.8523C102.227 65.8412 102.761 65.9135 103.274 66.0666C103.66 66.178 104.031 66.3392 104.376 66.5463C104.629 66.6961 104.859 66.8817 105.06 67.0973L105.407 67.4851L103.998 68.7913L103.713 68.5362C103.568 68.4026 103.411 68.283 103.243 68.179C103.026 68.0553 102.797 67.9528 102.559 67.8729C102.266 67.776 101.96 67.7278 101.651 67.73C101.387 67.7241 101.125 67.7656 100.876 67.8525C100.673 67.9198 100.485 68.0274 100.325 68.1688C100.187 68.2811 100.079 68.4245 100.008 68.5872C99.9404 68.7272 99.9055 68.8808 99.9061 69.0363C99.8999 69.2262 99.9384 69.415 100.018 69.5873C100.101 69.7684 100.232 69.9235 100.396 70.0363C100.62 70.1988 100.868 70.3261 101.131 70.4139C101.519 70.5367 101.914 70.6355 102.314 70.7099C102.759 70.806 103.193 70.9462 103.611 71.1283C104.016 71.3054 104.389 71.5505 104.713 71.8528C105.035 72.157 105.295 72.5209 105.478 72.9243C105.681 73.4049 105.778 73.9234 105.764 74.4449C105.769 74.9313 105.664 75.4127 105.458 75.8531C105.243 76.2825 104.945 76.6642 104.58 76.9757C104.196 77.3132 103.749 77.57 103.264 77.7308C102.729 77.9155 102.166 78.0053 101.6 77.9962C101.069 78.0061 100.539 77.9373 100.029 77.7921C99.5885 77.6625 99.1641 77.4845 98.7632 77.2614C98.3959 77.0686 98.0533 76.8322 97.7427 76.5573C97.4959 76.3343 97.2672 76.092 97.059 75.8327L98.5999 74.4244Z" fill="#174996"/>
<path d="M111.489 68.0463H107.57V66.1379H117.601V68.0667H113.683V77.7103H111.489V68.0463Z" fill="#174996"/>
<path d="M124.908 77.9961C124.095 78.0042 123.289 77.8444 122.541 77.5266C121.825 77.2156 121.177 76.7685 120.632 76.2102C120.087 75.6511 119.654 74.993 119.357 74.2713C118.884 73.1559 118.753 71.9254 118.98 70.7356C119.207 69.5458 119.782 68.4501 120.632 67.587C121.175 67.0285 121.824 66.5844 122.541 66.2808C123.288 65.9645 124.091 65.8015 124.903 65.8015C125.715 65.8015 126.518 65.9645 127.265 66.2808C127.98 66.5895 128.628 67.033 129.174 67.587C130.017 68.454 130.589 69.5489 130.817 70.7367C131.046 71.9245 130.921 73.1533 130.46 74.2713C130.155 74.9917 129.719 75.6492 129.174 76.2102C128.622 76.7827 127.959 77.2365 127.225 77.5436C126.492 77.8507 125.703 78.0046 124.908 77.9961ZM124.908 75.9551C125.439 75.9606 125.966 75.8491 126.449 75.6285C126.901 75.4129 127.304 75.1073 127.633 74.7305C127.96 74.345 128.212 73.902 128.378 73.4243C128.718 72.4076 128.718 71.308 128.378 70.2914C128.209 69.818 127.957 69.379 127.633 68.9953C127.289 68.6148 126.868 68.3116 126.399 68.1058C125.929 67.8999 125.421 67.7962 124.908 67.8014C124.37 67.7939 123.837 67.9054 123.347 68.1279C122.903 68.3329 122.507 68.6283 122.183 68.9953C121.855 69.3764 121.603 69.8162 121.438 70.2914C121.085 71.3057 121.085 72.4099 121.438 73.4243C121.6 73.9036 121.853 74.3471 122.183 74.7305C122.505 75.1066 122.901 75.4123 123.347 75.6285C123.838 75.844 124.371 75.9486 124.908 75.9347V75.9551Z" fill="#174996"/>
<path d="M133.98 66.1379H137.674C138.353 66.1128 139.029 66.2382 139.654 66.5053C140.126 66.7212 140.544 67.0382 140.879 67.434C141.166 67.7735 141.378 68.17 141.501 68.5973C141.614 68.9714 141.672 69.3598 141.675 69.7505C141.691 70.3244 141.572 70.8941 141.328 71.4139C141.116 71.8531 140.809 72.2399 140.43 72.5466C140.056 72.8415 139.63 73.0631 139.175 73.1997C138.731 73.3315 138.27 73.4002 137.807 73.4038H136.052V77.7103H133.96L133.98 66.1379ZM137.654 71.5669C137.897 71.5787 138.139 71.5414 138.367 71.4572C138.595 71.3731 138.804 71.2438 138.981 71.0771C139.147 70.9122 139.277 70.7146 139.363 70.4968C139.449 70.279 139.489 70.0457 139.481 69.8117C139.489 69.5668 139.447 69.3227 139.358 69.0945C139.268 68.8664 139.133 68.659 138.96 68.4851C138.788 68.3172 138.583 68.1856 138.359 68.098C138.134 68.0104 137.895 67.9685 137.654 67.9748H136.072V71.5669H137.654Z" fill="#174996"/>
<path d="M149.798 74.4243C149.954 74.6046 150.121 74.775 150.298 74.9346C150.493 75.123 150.705 75.2938 150.931 75.4448C151.184 75.6044 151.454 75.7345 151.737 75.8326C152.066 75.941 152.411 75.9928 152.757 75.9857C153.306 76.0323 153.851 75.864 154.278 75.5163C154.519 75.2968 154.683 75.0063 154.747 74.6869C154.811 74.3676 154.772 74.0361 154.635 73.7406C154.53 73.5323 154.367 73.3587 154.166 73.2406C153.898 73.074 153.61 72.9436 153.308 72.8528C152.881 72.7112 152.445 72.5986 152.002 72.516C151.517 72.4311 151.048 72.2692 150.614 72.0364C150.25 71.8335 149.926 71.5674 149.655 71.2506C149.399 70.9519 149.204 70.6049 149.083 70.2301C148.953 69.8738 148.888 69.4971 148.89 69.1178C148.888 68.6874 148.971 68.2608 149.135 67.8626C149.303 67.4706 149.557 67.1217 149.879 66.8421C150.246 66.5182 150.673 66.2686 151.135 66.1074C151.708 65.9046 152.313 65.8078 152.921 65.8216C153.452 65.8107 153.983 65.883 154.492 66.0359C154.879 66.1473 155.249 66.3085 155.594 66.5155C155.85 66.6658 156.084 66.8513 156.288 67.0666C156.441 67.2401 156.564 67.3728 156.625 67.4544L155.186 68.8116L154.911 68.5565C154.764 68.4206 154.603 68.3009 154.431 68.1994C154.214 68.0738 153.985 67.9712 153.747 67.8932C153.458 67.7954 153.154 67.7471 152.849 67.7503C152.582 67.7445 152.316 67.786 152.063 67.8728C151.864 67.9426 151.681 68.05 151.522 68.1891C151.385 68.304 151.274 68.4466 151.196 68.6076C151.134 68.7495 151.099 68.9018 151.094 69.0566C151.092 69.2461 151.131 69.4338 151.206 69.6076C151.297 69.7868 151.43 69.941 151.594 70.0566C151.816 70.2232 152.064 70.3509 152.329 70.4342C152.713 70.5572 153.105 70.656 153.502 70.7302C153.95 70.8264 154.388 70.9665 154.808 71.1486C155.214 71.3257 155.587 71.5708 155.911 71.8731C156.233 72.1773 156.493 72.5412 156.676 72.9446C156.874 73.4267 156.971 73.9441 156.962 74.4652C156.97 74.9531 156.862 75.4359 156.645 75.8734C156.435 76.3023 156.14 76.6842 155.778 76.996C155.394 77.3335 154.947 77.5904 154.461 77.7512C153.927 77.9358 153.364 78.0256 152.798 78.0165C152.267 78.0264 151.737 77.9577 151.227 77.8124C150.786 77.6828 150.362 77.5049 149.961 77.2817C149.61 77.088 149.284 76.8515 148.992 76.5776C148.744 76.3519 148.513 76.1098 148.298 75.853L149.798 74.4243Z" fill="#174996"/>
<path d="M160.309 66.1379H162.493V70.7914H168.289V66.1379H170.473V77.7103H168.289V72.7303H162.544V77.7103H160.36L160.309 66.1379Z" fill="#174996"/>
<path d="M179.515 77.9962C178.719 78.0047 177.931 77.8508 177.197 77.5437C176.464 77.2366 175.801 76.7828 175.249 76.2103C174.704 75.6493 174.268 74.9918 173.963 74.2714C173.351 72.7453 173.351 71.042 173.963 69.5159C174.265 68.7996 174.698 68.1456 175.239 67.5871C176.088 66.7296 177.175 66.1467 178.36 65.9138C179.544 65.681 180.771 65.8088 181.882 66.2809C182.595 66.5912 183.243 67.0345 183.79 67.5871C184.631 68.4559 185.2 69.5513 185.426 70.7388C185.653 71.9263 185.528 73.1541 185.066 74.2714C184.768 74.9931 184.335 75.6512 183.79 76.2103C183.246 76.7686 182.598 77.2157 181.882 77.5267C181.134 77.8444 180.328 78.0042 179.515 77.9962ZM179.515 75.9552C180.049 75.9605 180.579 75.8491 181.066 75.6286C181.516 75.4154 181.916 75.1094 182.239 74.7306C182.569 74.3472 182.822 73.9037 182.984 73.4244C183.338 72.41 183.338 71.3058 182.984 70.2915C182.82 69.8163 182.567 69.3765 182.239 68.9954C181.915 68.6259 181.514 68.3301 181.066 68.128C180.583 67.9185 180.062 67.8104 179.535 67.8104C179.008 67.8104 178.487 67.9185 178.004 68.128C177.56 68.333 177.164 68.6284 176.841 68.9954C176.51 69.3761 176.254 69.8158 176.086 70.2915C175.746 71.3081 175.746 72.4077 176.086 73.4244C176.251 73.9042 176.508 74.3477 176.841 74.7306C177.163 75.1067 177.559 75.4124 178.004 75.6286C178.48 75.8375 178.995 75.9419 179.515 75.9348V75.9552Z" fill="#174996"/>
<path d="M188.577 66.1381H192.281C192.963 66.1121 193.643 66.2376 194.271 66.5055C194.739 66.7268 195.156 67.0431 195.495 67.4341C195.783 67.7737 195.995 68.1702 196.118 68.5975C196.225 68.9728 196.284 69.3604 196.291 69.7507C196.307 70.3246 196.189 70.8943 195.944 71.4141C195.729 71.8512 195.423 72.2373 195.046 72.5468C194.673 72.8417 194.247 73.0633 193.791 73.1999C193.347 73.3317 192.887 73.4004 192.424 73.404H190.669V77.7105H188.577V66.1381ZM192.25 71.5671C192.493 71.5789 192.736 71.5416 192.964 71.4574C193.191 71.3733 193.4 71.244 193.577 71.0773C193.741 70.9115 193.87 70.7135 193.954 70.4958C194.038 70.278 194.077 70.0452 194.067 69.8119C194.077 69.5698 194.037 69.3282 193.949 69.1022C193.862 68.8762 193.729 68.6706 193.558 68.4983C193.388 68.326 193.184 68.1906 192.959 68.1006C192.734 68.0105 192.493 67.9678 192.25 67.975H190.669V71.5671H192.25Z" fill="#174996"/>
<path d="M203.547 66.1379H205.731V77.7103H203.547V66.1379Z" fill="#174996"/>
<path d="M209.231 66.1379H211.436L217.038 74.3631V66.1379H219.171V77.7103H217.028L211.364 69.3831V77.7103H209.231V66.1379Z" fill="#174996"/>
<path d="M226.896 66.1379H229.1L234.703 74.3631V66.1379H236.836V77.7103H234.682L229.029 69.3831V77.7103H226.896V66.1379Z" fill="#174996"/>
<path d="M243.224 72.6079L239.213 66.1379H241.601L244.377 70.7506L247.153 66.1379H249.449L245.438 72.6283V77.7307H243.224V72.6079Z" fill="#174996"/>
</g>
<defs>
<clipPath id="clip0_302_31">
<rect width="251" height="77.9961" fill="white"/>
</clipPath>
</defs>
</svg>
