<svg width="75" height="75" viewBox="0 0 75 75" fill="none" xmlns="http://www.w3.org/2000/svg">
<path d="M41.6807 75H21.3193C11.6268 75 3.74121 67.1145 3.74121 57.4219V17.5781C3.74121 7.88555 11.6268 0 21.3193 0H41.6807C51.3732 0 59.2588 7.88555 59.2588 17.5781V57.4219C59.2588 67.1145 51.3732 75 41.6807 75ZM21.3193 5.85938C14.8576 5.85938 9.60059 11.1164 9.60059 17.5781V57.4219C9.60059 63.8836 14.8576 69.1406 21.3193 69.1406H41.6807C48.1424 69.1406 53.3994 63.8836 53.3994 57.4219V17.5781C53.3994 11.1164 48.1424 5.85938 41.6807 5.85938H21.3193ZM47.54 22.1191C47.54 20.5011 46.2284 19.1895 44.6104 19.1895H18.3896C14.5025 19.3441 14.5055 24.8955 18.3896 25.0488H44.6104C46.2284 25.0488 47.54 23.7372 47.54 22.1191ZM47.1006 60.3516V46.4355C46.9459 42.5484 41.3946 42.5514 41.2412 46.4355V60.3516C41.2412 61.9696 42.5528 63.2812 44.1709 63.2812C45.789 63.2812 47.1006 61.9696 47.1006 60.3516ZM18.9756 43.5059C16.9531 43.5059 15.3135 45.1455 15.3135 47.168C15.5064 52.0257 22.4455 52.0244 22.6377 47.168C22.6377 45.1455 20.9981 43.5059 18.9756 43.5059ZM31.5732 43.5059C29.5507 43.5059 27.9111 45.1455 27.9111 47.168C28.1041 52.0257 35.0432 52.0244 35.2354 47.168C35.2354 45.1455 33.5958 43.5059 31.5732 43.5059ZM18.9756 55.957C16.9531 55.957 15.3135 57.5966 15.3135 59.6191C15.5064 64.4769 22.4455 64.4755 22.6377 59.6191C22.6377 57.5966 20.9981 55.957 18.9756 55.957ZM31.5732 55.957C29.5507 55.957 27.9111 57.5966 27.9111 59.6191C28.1041 64.4769 35.0432 64.4755 35.2354 59.6191C35.2354 57.5966 33.5958 55.957 31.5732 55.957ZM22.4912 34.5703C22.4912 36.5928 20.8516 38.2324 18.8291 38.2324C13.9714 38.0395 13.9727 31.1004 18.8291 30.9082C20.8516 30.9082 22.4912 32.5478 22.4912 34.5703ZM31.5732 30.9082C29.5507 30.9082 27.9111 32.5478 27.9111 34.5703C28.1041 39.428 35.0432 39.4267 35.2354 34.5703C35.2354 32.5478 33.5958 30.9082 31.5732 30.9082ZM44.1709 30.9082C42.1484 30.9082 40.5088 32.5478 40.5088 34.5703C40.7017 39.428 47.6408 39.4267 47.833 34.5703C47.833 32.5478 46.1934 30.9082 44.1709 30.9082Z" fill="#074799"/>
</svg>
