<svg width="75" height="75" viewBox="0 0 75 75" fill="none" xmlns="http://www.w3.org/2000/svg">
<path d="M64.8568 75C63.3136 75 61.8021 74.4346 60.5855 73.3455L53.2831 66.9195C52.0689 65.851 51.9508 64.0005 53.0192 62.7863C54.0877 61.572 55.9384 61.454 57.1525 62.5223L64.4658 68.9578C64.474 68.9651 64.4822 68.9724 64.4902 68.9796C64.5602 69.0424 64.7729 69.234 65.1203 69.0793C65.4678 68.9246 65.4678 68.6383 65.4678 68.5443V17.5713C65.4678 11.1121 60.2128 5.85711 53.7536 5.85711H21.2466C14.7874 5.85711 9.5324 11.1121 9.5324 17.5713V50.0783C9.5324 56.5375 14.7874 61.7925 21.2466 61.7925H43.7965C47.6821 61.9471 47.6792 67.4963 43.7965 67.6496H21.2466C11.5578 67.6496 3.67529 59.7671 3.67529 50.0783V17.5713C3.67529 7.8825 11.5578 0 21.2466 0H53.7536C63.4424 0 71.3249 7.8825 71.3249 17.5713V68.5444C71.3249 71.1249 69.8605 73.3801 67.5031 74.4299C66.6439 74.8126 65.745 75 64.8568 75ZM51.3721 38.6755C50.0075 37.8068 48.1975 38.2093 47.3292 39.574C42.0083 47.2168 32.7913 46.9296 27.5246 39.574C26.6562 38.2094 24.8463 37.8069 23.4817 38.6755C22.1171 39.5438 21.7149 41.354 22.5832 42.7184C22.8011 43.0607 28.1724 51.1033 37.5 51.1033C46.8275 51.1033 52.0527 43.0607 52.2706 42.7184C53.1389 41.354 52.7366 39.5438 51.3721 38.6755ZM48.9213 31.0427C47.3039 31.0427 45.9928 29.7316 45.9928 28.1141V20.0606C46.1474 16.175 51.6966 16.1779 51.8499 20.0606V28.1141C51.8499 29.7316 50.5388 31.0427 48.9213 31.0427ZM29.1536 28.1141V20.0606C28.9989 16.175 23.4498 16.1779 23.2965 20.0606V28.1141C23.2965 29.7316 24.6076 31.0427 26.225 31.0427C27.8425 31.0427 29.1536 29.7316 29.1536 28.1141Z" fill="#074799"/>
</svg>
