<svg width="75" height="75" viewBox="0 0 75 75" fill="none" xmlns="http://www.w3.org/2000/svg">
<path d="M43.2749 74.927H17.5439C7.87018 74.927 0 67.0569 0 57.3832V17.6171C0 7.94342 7.87018 0.0732422 17.5439 0.0732422H57.3099C66.9836 0.0732422 74.8538 7.94342 74.8538 17.6171V32.3832C74.6994 36.2627 69.1589 36.2598 69.0058 32.3832V17.6171C69.0058 11.168 63.7591 5.9212 57.3099 5.9212H17.5439C11.0947 5.9212 5.84795 11.168 5.84795 17.6171V57.3832C5.84795 63.8323 11.0947 69.0791 17.5439 69.0791H43.2749C47.1544 69.2335 47.1515 74.774 43.2749 74.927ZM39.6478 25.818L48.705 16.7607C49.8469 15.6187 49.8468 13.7674 48.7048 12.6256C47.5632 11.4836 45.7115 11.4836 44.5697 12.6256L35.5126 21.6829C34.9588 22.2367 34.2212 22.5361 33.4393 22.5393C32.6563 22.5379 31.9212 22.2308 31.3696 21.675L22.3971 12.6336C21.2595 11.4873 19.408 11.4803 18.262 12.6178C17.1158 13.7554 17.1086 15.6067 18.2462 16.7529L27.2187 25.7943C28.8735 27.4618 31.0788 28.3827 33.4282 28.3873H33.4456C35.7883 28.3871 37.9905 27.4751 39.6478 25.818ZM16.8481 48.6174L23.1287 42.2481C26.489 38.8401 26.4794 33.3045 23.107 29.9083L16.8408 23.5978C15.7029 22.452 13.8518 22.4455 12.7057 23.5832C11.5598 24.721 11.5534 26.5724 12.6911 27.7183L18.9573 34.0288C20.0814 35.1608 20.0846 37.0061 18.9645 38.1421L12.6839 44.5114C11.5501 45.6613 11.563 47.5126 12.713 48.6465C13.2826 49.2082 14.0244 49.4884 14.7659 49.4884C15.5212 49.4884 16.276 49.1977 16.8481 48.6174ZM65.4639 71.9636C71.7917 63.9311 75 57.8036 75 53.7516C75 45.113 67.9825 38.0849 59.3567 38.0849C50.731 38.0849 43.7134 45.113 43.7134 53.7516C43.7134 57.8038 46.9218 63.9311 53.2496 71.9637C54.7332 73.8471 56.9592 74.9272 59.3567 74.9272C61.7542 74.9272 63.9803 73.8469 65.4639 71.9636ZM63.167 70.1542H63.1684H63.167ZM69.152 53.7516C69.152 55.724 66.9763 60.5934 60.8702 68.3449C60.0727 69.3314 58.6422 69.3329 57.8434 68.3449C51.7371 60.5934 49.5614 55.724 49.5614 53.7516C49.5614 48.3376 53.9556 43.9329 59.3567 43.9329C64.7579 43.9329 69.152 48.3376 69.152 53.7516ZM17.6901 63.2311C15.1227 63.2466 13.7789 60.0721 15.6225 58.2396L58.1664 15.6958C59.3083 14.5538 61.1598 14.5538 62.3016 15.6958C63.4434 16.8377 63.4434 18.689 62.3016 19.8308L19.7577 62.3747C19.1867 62.9456 18.4384 63.2311 17.6901 63.2311ZM55.7018 53.4358C55.7018 55.4544 57.3382 57.0908 59.3567 57.0908C64.205 56.8982 64.2037 49.9727 59.3567 49.7808C57.3382 49.7808 55.7018 51.4172 55.7018 53.4358Z" fill="#074799"/>
</svg>
