<svg width="75" height="75" viewBox="0 0 75 75" fill="none" xmlns="http://www.w3.org/2000/svg">
<path d="M69.0508 47.6091C66.5651 45.425 63.5508 43.5379 60.0906 42.0004C58.6115 41.3435 56.8806 42.0095 56.2237 43.4881C55.5668 44.9667 56.2328 46.6976 57.7114 47.3551C60.6291 48.6517 63.1433 50.2178 65.1833 52.0105C67.6981 54.2204 69.1406 57.4202 69.1406 60.791V66.2109C69.1406 67.8263 67.8263 69.1406 66.2109 69.1406H8.78906C7.17373 69.1406 5.85938 67.8263 5.85938 66.2109V60.791C5.85938 57.4202 7.3019 54.2204 9.81674 52.0105C12.7768 49.4093 21.401 43.3594 37.5 43.3594C49.4539 43.3594 59.1797 33.6336 59.1797 21.6797C59.1797 9.72576 49.4539 0 37.5 0C25.5461 0 15.8203 9.72576 15.8203 21.6797C15.8203 28.668 19.1448 34.8936 24.2947 38.8607C14.8716 40.9321 9.00993 44.9192 5.94921 47.6091C2.16866 50.9308 0 55.735 0 60.791V66.2109C0 71.0575 3.94249 75 8.78906 75H66.2109C71.0575 75 75 71.0575 75 66.2109V60.791C75 55.735 72.8313 50.9308 69.0508 47.6091ZM21.6797 21.6797C21.6797 12.9564 28.7767 5.85938 37.5 5.85938C46.2233 5.85938 53.3203 12.9564 53.3203 21.6797C53.3203 30.4029 46.2233 37.5 37.5 37.5C28.7767 37.5 21.6797 30.4029 21.6797 21.6797Z" fill="#074799"/>
</svg>
