<svg width="32" height="32" viewBox="0 0 32 32" fill="none" xmlns="http://www.w3.org/2000/svg">
<path d="M7.60645 31.25V10.8105H1.24902V31.25H7.60645ZM4.39355 8.07617C6.44434 8.07617 8.08496 6.36719 8.08496 4.31641C8.08496 2.33398 6.44434 0.693359 4.39355 0.693359C2.41113 0.693359 0.770508 2.33398 0.770508 4.31641C0.770508 6.36719 2.41113 8.07617 4.39355 8.07617ZM31.3271 31.25H31.3955V20.0391C31.3955 14.5703 30.165 10.332 23.7393 10.332C20.6631 10.332 18.6123 12.041 17.7236 13.6133H17.6553V10.8105H11.5713V31.25H17.9287V21.1328C17.9287 18.4668 18.4072 15.9375 21.6885 15.9375C24.9697 15.9375 25.0381 18.9453 25.0381 21.3379V31.25H31.3271Z" fill="#F7941D"/>
</svg>
