<svg width="251" height="78" viewBox="0 0 251 78" fill="none" xmlns="http://www.w3.org/2000/svg">
<g clip-path="url(#clip0_302_524)">
<path d="M1.29602 0.887939H7.46998V14.0115H23.6856V0.887939H29.8596V33.5437H23.6856V19.5017H7.46998V33.5539H1.29602V0.887939Z" fill="white"/>
<path d="M48.3713 0.887939H54.7392L67.1381 33.5437H60.2804L57.4333 25.3185H45.2894L42.4423 33.5947H35.9825L48.3713 0.887939ZM55.6678 20.216L51.3614 7.53134L47.0039 20.216H55.6678Z" fill="white"/>
<path d="M74.4346 0.887939H80.1596L89.2215 16.3178L98.1814 0.887939H103.917L105.478 33.5437H99.457L98.3345 10.9296L90.4971 24.196H87.6091L79.7207 11.2153L78.6492 33.5028H72.863L74.4346 0.887939Z" fill="white"/>
<path d="M114.356 0.887939H120.479V33.5437H114.356V0.887939Z" fill="white"/>
<path d="M129.817 0.887939H135.94V28.0738H152.053V33.5539H129.817V0.887939Z" fill="white"/>
<path d="M159.911 6.31695H148.839V0.887939H177.147V6.31695H166.075V33.5539H159.952L159.911 6.31695Z" fill="white"/>
<path d="M197.169 34.4415C194.882 34.4606 192.615 34.0017 190.515 33.0944C188.494 32.2241 186.664 30.9655 185.127 29.39C183.58 27.8098 182.348 25.9502 181.494 23.91C179.74 19.6054 179.74 14.7849 181.494 10.4803C182.342 8.4506 183.564 6.5985 185.097 5.02072C186.636 3.4567 188.467 2.20871 190.485 1.34695C192.596 0.441474 194.872 -0.017164 197.169 -9.3675e-05C199.46 -0.0202874 201.73 0.438538 203.833 1.34695C205.849 2.21373 207.678 3.4611 209.221 5.02072C211.599 7.47395 213.21 10.568 213.855 13.9234C214.501 17.2788 214.153 20.7496 212.854 23.91C212.001 25.9502 210.768 27.8098 209.221 29.39C207.685 30.9655 205.854 32.2241 203.833 33.0944C201.73 34.0029 199.46 34.4617 197.169 34.4415ZM197.169 28.6043C198.626 28.6299 200.071 28.3341 201.401 27.738C202.731 27.1418 203.913 26.2599 204.864 25.155C205.793 24.0687 206.507 22.8149 206.966 21.4608C207.945 18.593 207.945 15.481 206.966 12.6132C206.508 11.2822 205.798 10.052 204.874 8.99043C203.954 7.93601 202.82 7.09049 201.547 6.51064C200.175 5.8933 198.684 5.58332 197.179 5.6024C195.671 5.57781 194.176 5.888 192.801 6.51064C191.534 7.0908 190.407 7.93649 189.495 8.99043C188.562 10.0567 187.844 11.294 187.383 12.6336C186.403 15.5014 186.403 18.6134 187.383 21.4812C187.846 22.8353 188.563 24.089 189.495 25.1754C190.441 26.2834 191.62 27.1676 192.949 27.7641C194.278 28.3606 195.723 28.6545 197.179 28.6247L197.169 28.6043Z" fill="white"/>
<path d="M222.212 0.887939H228.437L244.255 24.1041V0.887939H250.286V33.5437H244.163L228.243 10.0111V33.4824H222.212V0.887939Z" fill="white"/>
<path d="M1.63281 42.4932H7.0414C7.93864 42.4672 8.83156 42.627 9.66407 42.9626C10.3201 43.2291 10.9115 43.6327 11.3989 44.1464C11.8428 44.599 12.19 45.1372 12.4194 45.7282C12.6148 46.2542 12.7184 46.81 12.7255 47.3712C12.7442 48.3228 12.5119 49.2625 12.052 50.0959C11.5765 50.9182 10.8657 51.5793 10.011 51.994L13.7868 58.8313H10.307L7.00057 52.392H4.67386V58.8313H1.71444L1.63281 42.4932ZM7.0618 49.8407C7.39731 49.8624 7.7336 49.8127 8.04847 49.6948C8.36335 49.5769 8.64966 49.3936 8.88849 49.157C9.31753 48.6993 9.55629 48.0955 9.55629 47.4681C9.55629 46.8407 9.31753 46.2369 8.88849 45.7792C8.64867 45.5542 8.36616 45.3795 8.05766 45.2656C7.74916 45.1516 7.42093 45.1007 7.09242 45.1159H4.62284V49.8101L7.0618 49.8407Z" fill="#F79520"/>
<path d="M17.3484 42.4932H27.9309V45.2077H20.4405V49.0549H25.9511V51.8511H20.4405V56.1167H28.4921V58.8823H17.3484V42.4932Z" fill="#F79520"/>
<path d="M37.2377 42.4932H40.4216L46.616 58.821H43.1872L41.7687 54.6778H35.6457L34.2272 58.821H30.9923L37.2377 42.4932ZM40.8911 52.147L38.7378 45.7996L36.554 52.147H40.8911Z" fill="#F79520"/>
<path d="M49.8306 42.4932H52.892V56.0861H60.9539V58.8312H49.8306V42.4932Z" fill="#F79520"/>
<path d="M70.5465 42.4932H81.129V45.2077H73.6896V49.0549H79.2003V51.8511H73.6896V56.1167H81.7413V58.8823H70.5465V42.4932Z" fill="#F79520"/>
<path d="M87.0275 54.229C87.2463 54.4823 87.4815 54.7209 87.7316 54.9434C88.0127 55.2078 88.3166 55.4469 88.6399 55.6577C88.9873 55.8916 89.3649 56.077 89.7624 56.2088C90.215 56.3657 90.6917 56.4417 91.1707 56.4333C91.9432 56.4913 92.709 56.2543 93.3137 55.77C93.5351 55.5685 93.7113 55.3226 93.8309 55.0482C93.9505 54.7738 94.0107 54.4773 94.0076 54.178C94.0152 53.8609 93.9488 53.5465 93.8137 53.2596C93.6645 52.9636 93.4346 52.7159 93.1504 52.5452C92.7719 52.3084 92.3635 52.1231 91.9361 51.9942C91.3306 51.8026 90.7137 51.6493 90.089 51.5349C89.4093 51.4102 88.7545 51.1758 88.15 50.841C87.6327 50.5615 87.1696 50.1917 86.7826 49.7491C86.4308 49.3285 86.1577 48.848 85.9764 48.3306C85.7976 47.8261 85.7079 47.2943 85.7111 46.759C85.7083 46.151 85.8226 45.5482 86.0478 44.9834C86.2711 44.4131 86.6199 43.9004 87.0683 43.4833C87.587 43.0346 88.1861 42.6884 88.8338 42.4628C89.6423 42.1909 90.4913 42.0598 91.3441 42.075C92.1 42.0562 92.8541 42.1561 93.579 42.3709C94.1245 42.528 94.6463 42.758 95.1302 43.0547C95.5025 43.2638 95.8456 43.5211 96.1507 43.82L96.6405 44.3711L94.5995 46.2896L94.2015 45.9324C93.9985 45.7386 93.7723 45.5706 93.528 45.4324C93.2242 45.2509 92.9028 45.1004 92.5688 44.9834C92.1565 44.8515 91.7259 44.7861 91.2931 44.7895C90.9184 44.7824 90.5454 44.8411 90.191 44.963C89.9078 45.0606 89.6449 45.2093 89.4154 45.4018C89.2218 45.5656 89.0682 45.7716 88.9664 46.0039C88.8711 46.1979 88.8189 46.4103 88.8133 46.6264C88.8111 46.8969 88.8668 47.1648 88.9766 47.4121C89.1022 47.6643 89.288 47.8816 89.5175 48.0449C89.8264 48.2763 90.1711 48.4556 90.538 48.5755C91.0819 48.7565 91.6377 48.8997 92.2014 49.0041C92.8332 49.1348 93.449 49.3332 94.0383 49.596C94.6108 49.8433 95.1357 50.1886 95.5894 50.6165C96.0483 51.0456 96.4162 51.5628 96.6711 52.137C96.9568 52.8146 97.0959 53.5449 97.0793 54.2801C97.0857 54.9659 96.9319 55.6438 96.6303 56.2598C96.3434 56.8736 95.9254 57.417 95.4057 57.8518C94.8608 58.3244 94.2303 58.6881 93.5484 58.9233C92.7936 59.183 91.9995 59.3108 91.2013 59.3009C90.4558 59.303 89.7137 59.1999 88.997 58.9947C88.3747 58.8169 87.7754 58.5669 87.2112 58.2498C86.7145 57.968 86.2551 57.6252 85.8437 57.2293C85.4964 56.9129 85.1725 56.5718 84.8743 56.2088L87.0275 54.229Z" fill="#F79520"/>
<path d="M105.08 45.2077H99.549V42.4932H113.703V45.2077H108.162V58.8312H105.1L105.08 45.2077Z" fill="#F79520"/>
<path d="M119.387 42.4932H122.571L128.765 58.821H125.337L123.918 54.6778H117.795L116.377 58.821H113.183L119.387 42.4932ZM123.03 52.147L120.877 45.7996L118.693 52.147H123.03Z" fill="#F79520"/>
<path d="M133.786 45.2077H128.245V42.4932H142.41V45.2077H136.868V58.8312H133.807L133.786 45.2077Z" fill="#F79520"/>
<path d="M146.053 42.4932H156.635V45.2077H149.145V49.0549H154.656V51.8511H149.145V56.1167H157.197V58.8823H146.053V42.4932Z" fill="#F79520"/>
<path d="M175.739 50.1878H181.586V56.9537C180.845 57.6265 179.992 58.1652 179.066 58.5456C177.79 59.0457 176.425 59.2784 175.055 59.2294C173.825 59.2535 172.603 59.0279 171.463 58.5661C170.456 58.156 169.542 57.5449 168.779 56.77C168.037 56.0021 167.464 55.088 167.095 54.0861C166.293 51.9303 166.293 49.5577 167.095 47.4019C167.486 46.3835 168.072 45.4511 168.82 44.6568C169.602 43.8397 170.543 43.1925 171.586 42.7553C172.629 42.3181 173.751 42.1004 174.882 42.1157C175.624 42.1065 176.365 42.1923 177.086 42.3709C177.721 42.5275 178.334 42.7605 178.912 43.0648C179.441 43.3412 179.931 43.6841 180.372 44.0853C180.787 44.4766 181.163 44.9072 181.494 45.3711L179.321 47.31C178.832 46.5948 178.212 45.9784 177.494 45.4936C176.71 45.0113 175.801 44.7733 174.882 44.8098C174.136 44.7995 173.399 44.9638 172.728 45.2895C172.106 45.5997 171.554 46.0338 171.106 46.5651C170.646 47.1108 170.3 47.742 170.085 48.4224C169.842 49.1457 169.721 49.9044 169.728 50.6675C169.715 51.4771 169.86 52.2814 170.157 53.035C170.422 53.7132 170.821 54.331 171.33 54.8515C171.824 55.3573 172.419 55.7537 173.075 56.0148C173.74 56.285 174.45 56.4236 175.167 56.423C176.417 56.5005 177.652 56.1155 178.637 55.3413V52.8003H175.739V50.1878Z" fill="#F79520"/>
<path d="M186.219 42.4931H191.628C192.525 42.4663 193.418 42.6261 194.251 42.9626C194.911 43.2264 195.506 43.6302 195.996 44.1463C196.418 44.6039 196.744 45.1418 196.955 45.7281C197.15 46.2542 197.254 46.8099 197.261 47.3711C197.278 48.3213 197.05 49.2598 196.598 50.0958C196.119 50.9158 195.409 51.5762 194.557 51.9939L198.322 58.8312H194.842L191.536 52.3919H189.209V58.8312H186.25L186.219 42.4931ZM191.658 49.8407C191.994 49.861 192.33 49.8107 192.644 49.6929C192.959 49.5751 193.246 49.3925 193.485 49.1569C193.91 48.7087 194.141 48.111 194.128 47.4935C194.141 47.1757 194.087 46.8587 193.97 46.5632C193.852 46.2677 193.673 46.0005 193.444 45.7791C193.206 45.5544 192.926 45.3798 192.619 45.2659C192.312 45.1519 191.985 45.1009 191.658 45.1158H189.179V49.8101L191.658 49.8407Z" fill="#F79520"/>
<path d="M209.558 59.2701C208.414 59.2811 207.281 59.0517 206.231 58.5966C205.221 58.1631 204.305 57.5356 203.537 56.7495C202.768 55.9539 202.152 55.0233 201.721 54.0044C200.836 51.8535 200.836 49.4404 201.721 47.2895C202.146 46.276 202.759 45.3516 203.527 44.5648C204.727 43.3596 206.261 42.5407 207.93 42.2134C209.599 41.8861 211.328 42.0653 212.895 42.7279C213.9 43.1664 214.814 43.7894 215.589 44.5648C216.36 45.3489 216.973 46.274 217.395 47.2895C218.28 49.4404 218.28 51.8535 217.395 54.0044C216.971 55.0247 216.358 55.956 215.589 56.7495C214.817 57.5312 213.902 58.1581 212.895 58.5966C211.841 59.0502 210.705 59.2796 209.558 59.2701ZM209.558 56.3617C210.312 56.3684 211.057 56.2081 211.742 55.8923C212.38 55.5932 212.947 55.1618 213.405 54.6269C213.86 54.0817 214.206 53.4548 214.426 52.7798C214.671 52.0709 214.796 51.3257 214.793 50.5755C214.798 49.8218 214.674 49.0728 214.426 48.3611C214.206 47.6924 213.859 47.0722 213.405 46.5344C212.924 45.9913 212.331 45.5587 211.667 45.2663C211.003 44.9739 210.283 44.8286 209.558 44.8404C208.802 44.8289 208.052 44.9858 207.364 45.2996C206.736 45.5917 206.176 46.0123 205.721 46.5344C205.267 47.0725 204.921 47.6926 204.7 48.3611C204.452 49.0728 204.328 49.8218 204.333 50.5755C204.331 51.3257 204.455 52.0709 204.7 52.7798C204.92 53.4546 205.267 54.0814 205.721 54.6269C206.171 55.177 206.735 55.6228 207.374 55.9331C208.062 56.2349 208.807 56.3813 209.558 56.3617Z" fill="#F79520"/>
<path d="M222.1 42.4932H225.161V52.2695C225.155 52.8327 225.217 53.3946 225.345 53.9431C225.451 54.4069 225.656 54.8421 225.947 55.2187C226.237 55.5797 226.617 55.8577 227.049 56.0249C227.591 56.2268 228.165 56.3238 228.743 56.3106C229.318 56.324 229.889 56.227 230.427 56.0249C230.859 55.8577 231.239 55.5797 231.529 55.2187C231.824 54.8444 232.029 54.4083 232.131 53.9431C232.26 53.3946 232.321 52.8327 232.315 52.2695V42.4932H235.376V52.8103C235.382 53.6776 235.23 54.5386 234.927 55.3513C234.647 56.117 234.205 56.8132 233.631 57.3923C233.048 57.9786 232.354 58.4434 231.59 58.7598C229.765 59.4269 227.762 59.4269 225.937 58.7598C225.151 58.4496 224.437 57.9845 223.835 57.3923C223.264 56.8105 222.823 56.1151 222.539 55.3513C222.239 54.538 222.091 53.6769 222.1 52.8103V42.4932Z" fill="#F79520"/>
<path d="M240.101 42.4932H245.347C246.31 42.4564 247.269 42.6378 248.153 43.0239C248.816 43.3238 249.405 43.7663 249.878 44.3199C250.283 44.803 250.582 45.3664 250.755 45.9731C250.91 46.4969 250.992 47.0394 251 47.5854C251.023 48.3986 250.855 49.2059 250.51 49.9428C250.201 50.5653 249.758 51.1123 249.214 51.5449C248.695 51.9628 248.098 52.2749 247.459 52.4634C246.83 52.654 246.177 52.7537 245.52 52.7593H243.091V58.8823H240.122L240.101 42.4932ZM245.295 50.1571C245.637 50.1757 245.978 50.1247 246.3 50.0072C246.621 49.8896 246.914 49.708 247.163 49.4733C247.398 49.241 247.582 48.9621 247.703 48.6546C247.825 48.3471 247.88 48.0178 247.867 47.6875C247.883 47.3446 247.827 47.0022 247.704 46.682C247.581 46.3617 247.392 46.0705 247.15 45.8269C246.909 45.5833 246.619 45.3924 246.3 45.2665C245.98 45.1406 245.638 45.0824 245.295 45.0954H243.091V50.1979L245.295 50.1571Z" fill="#F79520"/>
<path d="M4.01052 72.6079L0 66.1379H2.39816L5.17387 70.7506L7.9496 66.1379H10.2355L6.225 72.6283V77.7307H4.01052V72.6079Z" fill="white"/>
<path d="M17.2259 77.996C16.4161 78.0051 15.6132 77.8452 14.8686 77.5266C14.1519 77.2179 13.5034 76.7705 12.9603 76.2102C12.4151 75.6492 11.9791 74.9917 11.6745 74.2713C11.0485 72.7479 11.0485 71.0391 11.6745 69.5158C11.9733 68.7977 12.4062 68.1431 12.9501 67.587C13.5071 67.0185 14.1725 66.5675 14.907 66.2607C15.6414 65.954 16.43 65.7977 17.2259 65.8012C18.0365 65.7953 18.8394 65.9587 19.5833 66.2808C20.2988 66.587 20.9472 67.0308 21.4916 67.587C22.0455 68.137 22.4828 68.793 22.7774 69.5158C23.2507 70.6334 23.3812 71.8665 23.1522 73.0585C22.9233 74.2504 22.3453 75.3474 21.4916 76.2102C20.9397 76.7827 20.2767 77.2365 19.5432 77.5436C18.8096 77.8506 18.0211 78.0046 17.2259 77.996ZM17.2259 75.9551C17.7422 75.9639 18.2541 75.8587 18.725 75.6471C19.196 75.4354 19.6145 75.1224 19.9506 74.7305C20.2807 74.3471 20.5337 73.9036 20.6956 73.4242C21.0495 72.4099 21.0495 71.3057 20.6956 70.2913C20.5314 69.8162 20.2786 69.3764 19.9506 68.9953C19.622 68.6255 19.2185 68.3299 18.7669 68.1279C18.284 67.9172 17.7629 67.8084 17.2361 67.8084C16.7093 67.8084 16.1882 67.9172 15.7054 68.1279C15.2584 68.3327 14.8587 68.6281 14.5318 68.9953C14.2075 69.379 13.9552 69.818 13.7869 70.2913C13.4469 71.308 13.4469 72.4076 13.7869 73.4242C13.9521 73.902 14.2048 74.345 14.5318 74.7305C14.8661 75.1246 15.2842 75.4391 15.7556 75.651C16.2271 75.8629 16.7399 75.9668 17.2566 75.9551H17.2259Z" fill="white"/>
<path d="M26.2165 66.1379H28.4003V73.0569C28.3944 73.4588 28.439 73.86 28.533 74.2508C28.6051 74.5772 28.7479 74.8837 28.9514 75.1489C29.1612 75.4023 29.4314 75.5989 29.7372 75.7204C30.1183 75.8644 30.5237 75.9337 30.9311 75.9244C31.3388 75.9366 31.7447 75.8672 32.1251 75.7204C32.4322 75.6013 32.703 75.4043 32.9109 75.1489C33.1137 74.882 33.2596 74.5764 33.3395 74.2508C33.4248 73.8587 33.4659 73.4582 33.4619 73.0569V66.1379H35.656V73.4447C35.6593 74.0575 35.5521 74.6659 35.3397 75.2407C35.1369 75.782 34.8242 76.2754 34.4212 76.6898C34.0013 77.1303 33.4937 77.4779 32.9313 77.7103C31.638 78.1729 30.2243 78.1729 28.931 77.7103C28.3685 77.4779 27.861 77.1303 27.441 76.6898C27.0381 76.2754 26.7254 75.782 26.5226 75.2407C26.3136 74.6652 26.2099 74.0569 26.2165 73.4447V66.1379Z" fill="white"/>
<path d="M39.0644 66.138H42.9014C43.5361 66.122 44.1675 66.2331 44.7587 66.4645C45.2254 66.6567 45.6462 66.9454 45.9935 67.3115C46.2922 67.6338 46.5246 68.0118 46.6772 68.4239C46.8138 68.7968 46.8862 69.1901 46.8915 69.5872C46.9086 70.2649 46.7429 70.9346 46.4119 71.5262C46.07 72.1101 45.562 72.579 44.9526 72.8732L47.6263 77.7103H45.1159L42.779 73.1487H41.1258V77.7103H39.0236L39.0644 66.138ZM42.9218 71.3425C43.1586 71.3566 43.3957 71.3203 43.6174 71.2358C43.8391 71.1514 44.0403 71.0208 44.2076 70.8526C44.5157 70.5315 44.6878 70.1037 44.6878 69.6587C44.6878 69.2136 44.5157 68.7858 44.2076 68.4647C44.0388 68.3059 43.8398 68.1825 43.6225 68.1019C43.4051 68.0213 43.1738 67.985 42.9422 67.9953H41.187V71.3425H42.9218Z" fill="white"/>
<path d="M60.0967 77.996C59.3016 78.0046 58.513 77.8506 57.7795 77.5436C57.046 77.2365 56.383 76.7827 55.8311 76.2102C54.6938 75.0634 54.0557 73.5137 54.0557 71.8986C54.0557 70.2835 54.6938 68.7338 55.8311 67.587C56.3735 67.0285 57.0224 66.5844 57.7394 66.2808C58.4872 65.9599 59.2932 65.7966 60.107 65.8012C60.9175 65.7953 61.7204 65.9587 62.4643 66.2808C63.1784 66.5895 63.8264 67.033 64.3726 67.587C65.2161 68.454 65.7874 69.5489 66.0159 70.7367C66.2444 71.9245 66.1201 73.1532 65.6584 74.2713C65.3538 74.9917 64.9177 75.6492 64.3726 76.2102C63.8295 76.7705 63.1809 77.2179 62.4643 77.5266C61.7165 77.8466 60.91 78.0065 60.0967 77.996ZM60.0967 75.9551C60.6281 75.9605 61.1542 75.8491 61.6377 75.6285C62.0893 75.4129 62.4922 75.1073 62.8215 74.7305C63.1485 74.345 63.4011 73.902 63.5664 73.4242C63.9064 72.4076 63.9064 71.308 63.5664 70.2913C63.3981 69.818 63.1458 69.379 62.8215 68.9953C62.2878 68.4235 61.5889 68.0325 60.8224 67.877C60.0558 67.7215 59.2599 67.8092 58.5456 68.1279C58.0986 68.3327 57.699 68.6281 57.372 68.9953C57.0441 69.3764 56.7913 69.8162 56.6271 70.2913C56.2732 71.3057 56.2732 72.4099 56.6271 73.4242C56.789 73.9036 57.0419 74.3471 57.372 74.7305C57.6976 75.1071 58.097 75.4127 58.5456 75.6285C59.0333 75.8452 59.5633 75.9498 60.0967 75.9347V75.9551Z" fill="white"/>
<path d="M69.1689 66.1379H71.3732L76.9757 74.3631V66.1379H79.1085V77.7103H76.9553L71.3018 69.3831V77.7103H69.1689V66.1379Z" fill="white"/>
<path d="M82.6088 66.1379H90.1094V68.0667H84.8028V70.7914H88.7011V72.7303H84.8028V75.7918H90.5074V77.7511H82.6088V66.1379Z" fill="white"/>
<path d="M98.6101 74.4244C98.7624 74.6046 98.9261 74.775 99.0999 74.9346C99.3011 75.1206 99.516 75.2912 99.7429 75.4449C99.9912 75.6064 100.259 75.7366 100.539 75.8326C100.868 75.941 101.213 75.9928 101.559 75.9857C102.108 76.0323 102.653 75.864 103.08 75.5163C103.315 75.2933 103.476 75.003 103.54 74.6851C103.604 74.3672 103.568 74.0373 103.437 73.7406C103.329 73.5345 103.166 73.3617 102.968 73.2406C102.699 73.0759 102.411 72.9456 102.11 72.8528C101.679 72.7114 101.24 72.5989 100.794 72.5161C100.312 72.4296 99.8474 72.2677 99.4163 72.0364C99.0524 71.8335 98.7276 71.5674 98.457 71.2506C98.2005 70.9519 98.0063 70.6049 97.8856 70.2301C97.7554 69.8738 97.6897 69.4972 97.6917 69.1178C97.69 68.6874 97.7733 68.2609 97.9366 67.8626C98.1047 67.4706 98.3594 67.1217 98.6815 66.8421C99.0483 66.5182 99.4746 66.2686 99.9367 66.1074C100.506 65.9045 101.108 65.8076 101.712 65.8216C102.248 65.8105 102.781 65.8828 103.294 66.0359C103.681 66.1473 104.051 66.3085 104.396 66.5156C104.649 66.6654 104.88 66.851 105.08 67.0666L105.427 67.4544L103.988 68.8117L103.713 68.5565C103.564 68.423 103.403 68.3035 103.233 68.1994C103.015 68.0757 102.786 67.9732 102.549 67.8932C102.26 67.7964 101.956 67.7481 101.651 67.7504C101.384 67.7445 101.118 67.786 100.865 67.8728C100.666 67.9426 100.483 68.05 100.324 68.1892C100.184 68.3011 100.072 68.4444 99.998 68.6076C99.9302 68.7475 99.8953 68.9011 99.8959 69.0566C99.8944 69.2461 99.9326 69.4338 100.008 69.6077C100.094 69.7866 100.224 69.941 100.386 70.0567C100.613 70.2211 100.864 70.3485 101.131 70.4343C101.515 70.5572 101.907 70.656 102.304 70.7302C102.752 70.8279 103.189 70.968 103.61 71.1486C104.015 71.3288 104.387 71.5735 104.713 71.8731C105.035 72.175 105.292 72.5397 105.468 72.9447C105.671 73.4252 105.768 73.9437 105.753 74.4652C105.759 74.9517 105.654 75.433 105.447 75.8735C105.237 76.3023 104.942 76.6842 104.58 76.996C104.196 77.3335 103.749 77.5904 103.263 77.7512C102.729 77.935 102.166 78.0248 101.6 78.0165C101.069 78.0264 100.539 77.9577 100.029 77.8124C99.5878 77.6847 99.1632 77.5067 98.7632 77.2817C98.3964 77.0882 98.0538 76.8518 97.7427 76.5776C97.4985 76.352 97.27 76.1099 97.059 75.8531L98.6101 74.4244Z" fill="white"/>
<path d="M111.499 68.0463H107.58V66.1379H117.571V68.0667H113.652V77.7103H111.468L111.499 68.0463Z" fill="white"/>
<path d="M124.908 77.996C124.113 78.0046 123.324 77.8506 122.591 77.5436C121.857 77.2365 121.194 76.7827 120.642 76.2102C120.097 75.6492 119.661 74.9917 119.357 74.2713C118.731 72.7479 118.731 71.0391 119.357 69.5158C119.655 68.7977 120.088 68.1431 120.632 67.587C121.189 67.0185 121.855 66.5675 122.589 66.2607C123.324 65.954 124.112 65.7977 124.908 65.8012C125.719 65.7953 126.522 65.9587 127.265 66.2808C128.742 66.9248 129.905 68.1246 130.503 69.6203C131.101 71.116 131.085 72.787 130.46 74.2713C130.159 74.9938 129.722 75.652 129.174 76.2102C128.622 76.7827 127.959 77.2365 127.225 77.5436C126.492 77.8506 125.703 78.0046 124.908 77.996ZM124.908 75.9551C125.424 75.9639 125.936 75.8587 126.407 75.6471C126.878 75.4354 127.297 75.1224 127.633 74.7305C127.963 74.3471 128.216 73.9036 128.378 73.4242C128.732 72.4099 128.732 71.3057 128.378 70.2913C128.214 69.8162 127.961 69.3764 127.633 68.9953C127.304 68.6255 126.901 68.3299 126.449 68.1279C125.966 67.9172 125.445 67.8084 124.918 67.8084C124.391 67.8084 123.87 67.9172 123.388 68.1279C122.941 68.3327 122.541 68.6281 122.214 68.9953C121.886 69.3764 121.633 69.8162 121.469 70.2913C121.129 71.308 121.129 72.4076 121.469 73.4242C121.631 73.9036 121.884 74.3471 122.214 74.7305C122.548 75.1246 122.966 75.4391 123.438 75.651C123.909 75.8629 124.422 75.9668 124.939 75.9551H124.908Z" fill="white"/>
<path d="M133.98 66.1381H137.695C138.377 66.1142 139.056 66.2395 139.685 66.5055C140.152 66.7241 140.566 67.0408 140.899 67.4342C141.189 67.7733 141.405 68.1697 141.532 68.5975C141.639 68.9728 141.698 69.3604 141.705 69.7507C141.717 70.3242 141.598 70.8928 141.358 71.4141C141.14 71.8518 140.83 72.238 140.45 72.5468C140.08 72.8414 139.658 73.063 139.205 73.1999C138.758 73.3318 138.294 73.4005 137.828 73.404H136.083V77.7105H133.98V66.1381ZM137.664 71.5672C137.907 71.5784 138.149 71.5408 138.377 71.4566C138.605 71.3725 138.814 71.2435 138.991 71.0773C139.155 70.9116 139.284 70.7136 139.368 70.4958C139.452 70.278 139.491 70.0452 139.481 69.8119C139.491 69.5698 139.451 69.3282 139.363 69.1022C139.276 68.8762 139.143 68.6706 138.972 68.4983C138.802 68.326 138.598 68.1906 138.373 68.1006C138.148 68.0106 137.907 67.9678 137.664 67.975H136.083V71.5672H137.664Z" fill="white"/>
<path d="M149.798 74.4243C149.954 74.6045 150.121 74.7749 150.298 74.9345C150.499 75.1206 150.714 75.2911 150.941 75.4448C151.189 75.6063 151.457 75.7365 151.737 75.8326C152.066 75.941 152.411 75.9927 152.757 75.9857C153.306 76.0312 153.851 75.863 154.278 75.5162C154.516 75.2946 154.677 75.0036 154.739 74.6847C154.802 74.3658 154.762 74.0353 154.625 73.7406C154.52 73.5322 154.357 73.3587 154.155 73.2405C153.889 73.072 153.601 72.9415 153.298 72.8527C152.871 72.7099 152.435 72.5973 151.992 72.516C151.51 72.4295 151.046 72.2677 150.614 72.0364C150.249 71.8363 149.923 71.5698 149.655 71.2506C149.399 70.9496 149.202 70.6035 149.073 70.2301C148.796 69.4653 148.796 68.6273 149.073 67.8625C149.245 67.4701 149.504 67.1213 149.829 66.8421C150.194 66.5159 150.621 66.2661 151.084 66.1073C151.653 65.9035 152.255 65.8066 152.859 65.8216C153.395 65.8104 153.928 65.8827 154.441 66.0359C154.828 66.1472 155.198 66.3084 155.543 66.5155C155.797 66.6654 156.027 66.851 156.227 67.0666L156.574 67.4543L155.135 68.8116L154.86 68.5565C154.711 68.423 154.55 68.3034 154.38 68.1993C154.162 68.0756 153.933 67.9731 153.696 67.8932C153.404 67.7954 153.097 67.7471 152.788 67.7503C152.524 67.7444 152.262 67.7858 152.012 67.8727C151.809 67.9401 151.622 68.0477 151.461 68.1891C151.327 68.3041 151.219 68.4468 151.145 68.6075C151.077 68.7474 151.042 68.901 151.043 69.0565C151.037 69.2465 151.075 69.4352 151.155 69.6076C151.238 69.7886 151.369 69.9438 151.533 70.0566C151.757 70.2191 152.005 70.3464 152.268 70.4342C152.656 70.557 153.051 70.6558 153.451 70.7301C153.896 70.8263 154.33 70.9665 154.747 71.1485C155.153 71.3257 155.526 71.5707 155.849 71.8731C156.172 72.1773 156.432 72.5412 156.615 72.9446C156.818 73.4251 156.915 73.9437 156.901 74.4651C156.906 74.9516 156.801 75.433 156.594 75.8734C156.381 76.3001 156.086 76.6813 155.727 76.9959C155.338 77.3315 154.888 77.5881 154.4 77.7511C153.866 77.9357 153.303 78.0255 152.737 78.0164C152.206 78.0256 151.676 77.9569 151.165 77.8123C150.725 77.6828 150.301 77.5048 149.9 77.2817C149.533 77.0889 149.19 76.8525 148.88 76.5775C148.633 76.3546 148.404 76.1123 148.196 75.853L149.798 74.4243Z" fill="white"/>
<path d="M160.319 66.1379H162.472V70.7914H168.218V66.1379H170.402V77.7103H168.218V72.7303H162.472V77.7103H160.289L160.319 66.1379Z" fill="white"/>
<path d="M179.504 77.996C178.709 78.0046 177.921 77.8506 177.187 77.5436C176.454 77.2365 175.791 76.7827 175.239 76.2102C174.101 75.0634 173.463 73.5137 173.463 71.8986C173.463 70.2835 174.101 68.7338 175.239 67.587C175.781 67.0285 176.43 66.5844 177.147 66.2808C177.895 65.9599 178.701 65.7966 179.515 65.8012C180.325 65.7953 181.128 65.9587 181.872 66.2808C182.586 66.5895 183.234 67.033 183.78 67.587C184.624 68.454 185.195 69.5489 185.424 70.7367C185.652 71.9245 185.528 73.1532 185.066 74.2713C184.761 74.9917 184.325 75.6492 183.78 76.2102C183.237 76.7705 182.589 77.2179 181.872 77.5266C181.124 77.8466 180.318 78.0065 179.504 77.996ZM179.504 75.9551C180.036 75.9605 180.562 75.8491 181.045 75.6285C181.497 75.4129 181.9 75.1073 182.229 74.7305C182.556 74.345 182.809 73.902 182.974 73.4242C183.314 72.4076 183.314 71.308 182.974 70.2913C182.806 69.818 182.553 69.379 182.229 68.9953C181.695 68.4235 180.997 68.0325 180.23 67.877C179.464 67.7215 178.667 67.8092 177.953 68.1279C177.506 68.3327 177.107 68.6281 176.78 68.9953C176.452 69.3764 176.199 69.8162 176.035 70.2913C175.681 71.3057 175.681 72.4099 176.035 73.4242C176.197 73.9036 176.45 74.3471 176.78 74.7305C177.105 75.1071 177.505 75.4127 177.953 75.6285C178.441 75.8452 178.971 75.9498 179.504 75.9347V75.9551Z" fill="white"/>
<path d="M188.577 66.1379H192.291C192.97 66.1128 193.646 66.2382 194.271 66.5053C194.742 66.7212 195.16 67.0382 195.495 67.434C195.785 67.7719 195.997 68.1689 196.118 68.5973C196.231 68.9714 196.289 69.3598 196.291 69.7505C196.307 70.3244 196.189 70.8941 195.944 71.4139C195.732 71.8531 195.426 72.2399 195.046 72.5466C194.677 72.8412 194.254 73.0628 193.801 73.1997C193.354 73.3316 192.89 73.4003 192.424 73.4038H190.679V77.7103H188.577V66.1379ZM192.25 71.5669C192.493 71.5799 192.736 71.5432 192.964 71.4589C193.192 71.3747 193.401 71.2448 193.577 71.0771C193.745 70.9133 193.876 70.716 193.962 70.4979C194.048 70.2798 194.087 70.046 194.077 69.8117C194.085 69.5668 194.043 69.3227 193.954 69.0945C193.864 68.8664 193.729 68.659 193.557 68.4851C193.384 68.3172 193.179 68.1856 192.955 68.098C192.731 68.0104 192.491 67.9685 192.25 67.9748H190.679V71.5669H192.25Z" fill="white"/>
<path d="M203.547 66.1379H205.731V77.7103H203.547V66.1379Z" fill="white"/>
<path d="M209.242 66.1379H211.456L217.058 74.3631V66.1379H219.191V77.7103H217.038L211.385 69.3831V77.7103H209.252L209.242 66.1379Z" fill="white"/>
<path d="M226.896 66.1379H229.1L234.703 74.3631V66.1379H236.836V77.7103H234.693L229.029 69.3831V77.7103H226.896V66.1379Z" fill="white"/>
<path d="M243.224 72.6079L239.213 66.1379H241.612L244.387 70.7506L247.173 66.1379H249.459L245.459 72.6283V77.7307H243.234L243.224 72.6079Z" fill="white"/>
</g>
<defs>
<clipPath id="clip0_302_524">
<rect width="251" height="77.9961" fill="white"/>
</clipPath>
</defs>
</svg>
