<svg width="17" height="17" viewBox="0 0 17 17" fill="none" xmlns="http://www.w3.org/2000/svg">
<g clip-path="url(#clip0_102_2571)">
<path d="M15.9534 0.640167H11.3267C10.9808 0.640167 10.7005 0.920471 10.7005 1.26626C10.7005 1.61206 10.9808 1.89236 11.3267 1.89236H14.4418L9.42266 6.91121C9.17812 7.15574 9.17812 7.55215 9.42266 7.79664C9.66716 8.04113 10.0636 8.04116 10.3081 7.79664L15.3273 2.77779V5.89271C15.3273 6.2385 15.6076 6.51881 15.9534 6.51881C16.2992 6.51881 16.5795 6.2385 16.5795 5.89271V1.26626C16.5795 0.925511 16.3026 0.640167 15.9534 0.640167Z" fill="#696969"/>
<path d="M7.70765 9.51178C7.46311 9.26729 7.06668 9.26726 6.82218 9.51178L1.80304 14.5306V11.4157C1.80304 11.0699 1.52272 10.7896 1.17691 10.7896C0.8311 10.7896 0.550781 11.0699 0.550781 11.4157V16.0422C0.550781 16.3823 0.827938 16.6683 1.17691 16.6683H5.80365C6.14946 16.6683 6.42978 16.3879 6.42978 16.0422C6.42978 15.6964 6.14946 15.4161 5.80365 15.4161H2.68852L7.70765 10.3972C7.95219 10.1527 7.95219 9.75627 7.70765 9.51178Z" fill="#696969"/>
</g>
<defs>
<clipPath id="clip0_102_2571">
<rect width="16.029" height="16.0281" fill="white" transform="translate(0.550781 0.640167)"/>
</clipPath>
</defs>
</svg>
