<svg width="19" height="18" viewBox="0 0 19 18" fill="none" xmlns="http://www.w3.org/2000/svg">
<g clip-path="url(#clip0_102_2563)">
<path d="M9.51468 0.495331C4.77955 0.495331 0.927734 4.34693 0.927734 9.08179C0.927734 13.8166 4.77955 17.6682 9.51468 17.6682C14.2498 17.6682 18.1016 13.816 18.1016 9.08179C18.1016 4.3476 14.2498 0.495331 9.51468 0.495331ZM9.51468 16.338C5.51387 16.338 2.25801 13.083 2.25801 9.08179C2.25801 5.08053 5.51387 1.82553 9.51468 1.82553C13.5155 1.82553 16.7714 5.08053 16.7714 9.08179C16.7714 13.083 13.5162 16.338 9.51468 16.338Z" fill="#696969"/>
<path d="M12.84 8.35682H10.1794V5.69643C10.1794 5.32929 9.88212 5.03131 9.51429 5.03131C9.14646 5.03131 8.84913 5.32929 8.84913 5.69643V8.35682H6.18859C5.82076 8.35682 5.52344 8.6548 5.52344 9.02193C5.52344 9.38907 5.82076 9.68705 6.18859 9.68705H8.84913V12.3474C8.84913 12.7146 9.14646 13.0126 9.51429 13.0126C9.88212 13.0126 10.1794 12.7146 10.1794 12.3474V9.68705H12.84C13.2078 9.68705 13.5051 9.38907 13.5051 9.02193C13.5051 8.6548 13.2078 8.35682 12.84 8.35682Z" fill="#696969"/>
</g>
<defs>
<clipPath id="clip0_102_2563">
<rect width="17.1739" height="17.1729" fill="white" transform="translate(0.927734 0.495331)"/>
</clipPath>
</defs>
</svg>
