<svg width="18" height="14" viewBox="0 0 18 14" fill="none" xmlns="http://www.w3.org/2000/svg">
<mask id="path-1-inside-1_1_10" fill="white">
<path d="M15.8906 0H2.10938C0.946266 0 0 0.946266 0 2.10938V11.1094C0 12.2725 0.946266 13.2188 2.10938 13.2188H15.8906C17.0537 13.2188 18 12.2725 18 11.1094V2.10938C18 0.946266 17.0537 0 15.8906 0ZM16.5938 11.1094C16.5938 11.4971 16.2783 11.8125 15.8906 11.8125H2.10938C1.72167 11.8125 1.40625 11.4971 1.40625 11.1094V2.10938C1.40625 1.72167 1.72167 1.40625 2.10938 1.40625H15.8906C16.2783 1.40625 16.5938 1.72167 16.5938 2.10938V11.1094Z"/>
</mask>
<path d="M15.8906 0H2.10938C0.946266 0 0 0.946266 0 2.10938V11.1094C0 12.2725 0.946266 13.2188 2.10938 13.2188H15.8906C17.0537 13.2188 18 12.2725 18 11.1094V2.10938C18 0.946266 17.0537 0 15.8906 0ZM16.5938 11.1094C16.5938 11.4971 16.2783 11.8125 15.8906 11.8125H2.10938C1.72167 11.8125 1.40625 11.4971 1.40625 11.1094V2.10938C1.40625 1.72167 1.72167 1.40625 2.10938 1.40625H15.8906C16.2783 1.40625 16.5938 1.72167 16.5938 2.10938V11.1094Z" fill="black"/>
<path d="M15.8906 -2H2.10938V2H15.8906V-2ZM2.10938 -2C-0.158304 -2 -2 -0.158304 -2 2.10938H2C2 2.08129 2.00924 2.05623 2.03274 2.03274C2.05623 2.00924 2.08129 2 2.10938 2V-2ZM-2 2.10938V11.1094H2V2.10938H-2ZM-2 11.1094C-2 13.3771 -0.158304 15.2188 2.10938 15.2188V11.2188C2.08129 11.2188 2.05623 11.2095 2.03274 11.186C2.00924 11.1625 2 11.1375 2 11.1094H-2ZM2.10938 15.2188H15.8906V11.2188H2.10938V15.2188ZM15.8906 15.2188C18.1583 15.2188 20 13.3771 20 11.1094H16C16 11.1375 15.9908 11.1625 15.9673 11.186C15.9438 11.2095 15.9187 11.2188 15.8906 11.2188V15.2188ZM20 11.1094V2.10938H16V11.1094H20ZM20 2.10938C20 -0.158304 18.1583 -2 15.8906 -2V2C15.9187 2 15.9438 2.00924 15.9673 2.03274C15.9908 2.05623 16 2.08129 16 2.10938H20ZM14.5938 11.1094C14.5938 10.3925 15.1738 9.8125 15.8906 9.8125V13.8125C17.3829 13.8125 18.5938 12.6016 18.5938 11.1094H14.5938ZM15.8906 9.8125H2.10938V13.8125H15.8906V9.8125ZM2.10938 9.8125C2.82624 9.8125 3.40625 10.3925 3.40625 11.1094H-0.59375C-0.59375 12.6016 0.617102 13.8125 2.10938 13.8125V9.8125ZM3.40625 11.1094V2.10938H-0.59375V11.1094H3.40625ZM3.40625 2.10938C3.40625 2.82624 2.82624 3.40625 2.10938 3.40625V-0.59375C0.617102 -0.59375 -0.59375 0.617102 -0.59375 2.10938H3.40625ZM2.10938 3.40625H15.8906V-0.59375H2.10938V3.40625ZM15.8906 3.40625C15.1738 3.40625 14.5938 2.82624 14.5938 2.10938H18.5938C18.5938 0.617102 17.3829 -0.59375 15.8906 -0.59375V3.40625ZM14.5938 2.10938V11.1094H18.5938V2.10938H14.5938Z" fill="black" mask="url(#path-1-inside-1_1_10)"/>
<mask id="path-3-inside-2_1_10" fill="white">
<path d="M16.4746 0.876465L9.0002 6.43596L1.52584 0.876465L0.686523 2.0048L9.0002 8.18856L17.3139 2.0048L16.4746 0.876465Z"/>
</mask>
<path d="M16.4746 0.876465L9.0002 6.43596L1.52584 0.876465L0.686523 2.0048L9.0002 8.18856L17.3139 2.0048L16.4746 0.876465Z" fill="black"/>
<path d="M16.4746 0.876465L18.0793 -0.317215L16.8856 -1.92189L15.2809 -0.728292L16.4746 0.876465ZM9.0002 6.43596L7.80657 8.04071L9.0002 8.92855L10.1938 8.04071L9.0002 6.43596ZM1.52584 0.876465L2.71948 -0.728292L1.11477 -1.92189L-0.0788766 -0.317215L1.52584 0.876465ZM0.686523 2.0048L-0.918197 0.811122L-2.11192 2.41589L-0.507105 3.60956L0.686523 2.0048ZM9.0002 8.18856L7.80657 9.79332L9.0002 10.6812L10.1938 9.79332L9.0002 8.18856ZM17.3139 2.0048L18.5075 3.60956L20.1123 2.41589L18.9186 0.811123L17.3139 2.0048ZM15.2809 -0.728292L7.80657 4.8312L10.1938 8.04071L17.6682 2.48122L15.2809 -0.728292ZM10.1938 4.8312L2.71948 -0.728292L0.332212 2.48122L7.80657 8.04071L10.1938 4.8312ZM-0.0788766 -0.317215L-0.918197 0.811122L2.29124 3.19848L3.13056 2.07015L-0.0788766 -0.317215ZM-0.507105 3.60956L7.80657 9.79332L10.1938 6.58381L1.88015 0.400044L-0.507105 3.60956ZM10.1938 9.79332L18.5075 3.60956L16.1203 0.400044L7.80657 6.58381L10.1938 9.79332ZM18.9186 0.811123L18.0793 -0.317215L14.8698 2.07014L15.7092 3.19848L18.9186 0.811123Z" fill="black" mask="url(#path-3-inside-2_1_10)"/>
</svg>
