<svg width="53" height="53" viewBox="0 0 53 53" fill="none" xmlns="http://www.w3.org/2000/svg">
<circle cx="26.5" cy="26.5" r="26.5" fill="#0061DF"/>
<path d="M19.931 26.4262C20.1724 26.3934 20.5 26.377 20.9138 26.377C22.2241 26.377 23.2069 26.7377 23.8621 27.459C24.5517 28.1475 24.8966 29.0164 24.8966 30.0656C24.8966 31.1803 24.5 32.1148 23.7069 32.8689C22.9483 33.623 21.8966 34 20.5517 34C19.1724 34 18.069 33.6393 17.2414 32.918C16.4138 32.1639 16 31.082 16 29.6721C16 27.7705 16.6034 25.8525 17.8103 23.918C19.0172 21.9508 20.5 20.3115 22.2586 19L23.2931 20.0328C21.0517 22.2951 19.931 24.4262 19.931 26.4262ZM32.0345 26.4262C32.2759 26.3934 32.6034 26.377 33.0172 26.377C34.3276 26.377 35.3103 26.7377 35.9655 27.459C36.6552 28.1475 37 29.0164 37 30.0656C37 31.1803 36.6035 32.1148 35.8103 32.8689C35.0517 33.623 34 34 32.6552 34C31.2759 34 30.1724 33.6393 29.3448 32.918C28.5172 32.1639 28.1034 31.082 28.1034 29.6721C28.1034 27.7705 28.7069 25.8525 29.9138 23.918C31.1207 21.9508 32.6034 20.3115 34.3621 19L35.3966 20.0328C33.1552 22.2951 32.0345 24.4262 32.0345 26.4262Z" fill="white"/>
</svg>
