<svg width="21" height="20" viewBox="0 0 21 20" fill="none" xmlns="http://www.w3.org/2000/svg">
<g clip-path="url(#clip0_102_2620)">
<path d="M19.3585 0.640142L1.03798 18.9595C0.679114 19.3184 0.933697 19.9348 1.44195 19.9348H19.7625C20.078 19.9348 20.3338 19.679 20.3338 19.3635V1.04412C20.3339 0.536624 19.7179 0.280799 19.3585 0.640142ZM19.1912 18.7922H2.82128L5.72694 15.8868L6.52276 16.6825C6.63432 16.7941 6.78054 16.8498 6.92672 16.8498C7.43117 16.8498 7.69165 16.2355 7.33069 15.8746L6.53487 15.0788L8.16456 13.4493L8.96038 14.245C9.07194 14.3566 9.21816 14.4123 9.36435 14.4123C9.86879 14.4123 10.1293 13.798 9.76831 13.4371L8.97253 12.6413L10.6022 11.0117L11.398 11.8075C11.5096 11.9191 11.6558 11.9748 11.802 11.9748C12.3064 11.9748 12.5669 11.3605 12.206 10.9996L11.4102 10.2038L13.0399 8.57423L13.8357 9.37001C13.9473 9.48156 14.0935 9.53732 14.2397 9.53732C14.7441 9.53732 15.0046 8.92299 14.6436 8.56205L13.8479 7.76631L15.4775 6.13673L16.2734 6.9325C16.3849 7.04405 16.5311 7.09981 16.6773 7.09981C17.1818 7.09981 17.4423 6.48548 17.0813 6.12454L16.2855 5.3288L19.1912 2.42333V18.7922H19.1912Z" fill="#696969"/>
<path d="M15.6633 10.0852L10.4833 15.2649C10.1244 15.6238 10.379 16.2402 10.8873 16.2402H16.0673C16.3828 16.2402 16.6386 15.9844 16.6386 15.6689V10.4892C16.6387 9.98169 16.0227 9.72587 15.6633 10.0852ZM15.496 15.0976H12.2666L15.496 11.8684V15.0976Z" fill="#696969"/>
</g>
<defs>
<clipPath id="clip0_102_2620">
<rect width="19.4638" height="19.4626" fill="white" transform="translate(0.869141 0.471985)"/>
</clipPath>
</defs>
</svg>
