<svg width="16" height="17" viewBox="0 0 16 17" fill="none" xmlns="http://www.w3.org/2000/svg">
<g clip-path="url(#clip0_201_1663)">
<path d="M7.04606 0.205078C3.16097 0.205078 0 3.34833 0 7.21165C0 11.0752 3.16097 14.2182 7.04606 14.2182C10.9314 14.2182 14.0921 11.0752 14.0921 7.21165C14.0921 3.34833 10.9314 0.205078 7.04606 0.205078ZM7.04606 12.9247C3.87816 12.9247 1.30081 10.3618 1.30081 7.21168C1.30081 4.06153 3.87816 1.4986 7.04606 1.4986C10.214 1.4986 12.7913 4.0615 12.7913 7.21165C12.7913 10.3618 10.214 12.9247 7.04606 12.9247Z" fill="white"/>
<path d="M15.8095 15.0114L12.0805 11.3033C11.8264 11.0506 11.4149 11.0506 11.1608 11.3033C10.9067 11.5557 10.9067 11.9654 11.1608 12.2178L14.8898 15.9259C15.0168 16.0522 15.1831 16.1154 15.3496 16.1154C15.5159 16.1154 15.6824 16.0522 15.8095 15.9259C16.0636 15.6735 16.0636 15.2638 15.8095 15.0114Z" fill="white"/>
</g>
<defs>
<clipPath id="clip0_201_1663">
<rect width="16" height="15.9103" fill="white" transform="translate(0 0.205078)"/>
</clipPath>
</defs>
</svg>
