<svg width="55" height="55" viewBox="0 0 55 55" fill="none" xmlns="http://www.w3.org/2000/svg">
<g clip-path="url(#clip0_227_49)">
<path d="M49.1618 28.6509V49.8392C49.1479 50.6687 48.8124 51.4604 48.226 52.047C47.6397 52.6336 46.8484 52.9693 46.0193 52.9832H8.9673C8.13586 52.9767 7.34031 52.6434 6.75238 52.0552C6.16445 51.467 5.83129 50.671 5.82483 49.8392V28.6509" stroke="#003376" stroke-width="2" stroke-linecap="round" stroke-linejoin="round"/>
<path d="M32.9847 27.3438H22.013C21.5871 27.345 21.179 27.5148 20.8779 27.816C20.5767 28.1173 20.407 28.5256 20.4058 28.9517V39.9288C20.407 40.3548 20.5767 40.7631 20.8779 41.0644C21.179 41.3657 21.5871 41.5355 22.013 41.5367H32.9847C33.4106 41.5355 33.8187 41.3657 34.1198 41.0644C34.421 40.7631 34.5907 40.3548 34.5919 39.9288V28.9517C34.5907 28.5256 34.421 28.1173 34.1198 27.816C33.8187 27.5148 33.4106 27.345 32.9847 27.3438V27.3438ZM27.4472 33.7149L27.528 41.2223L27.4472 33.7149ZM34.1946 33.488L20.8032 33.5689L34.1946 33.488ZM49.1482 19.5264V1.60341H41.86V12.9735L49.1482 19.5264ZM1.08862 24.4782L1.32431 24.7365L1.08862 24.9476L5.00774 29.3537L27.4944 9.3107L49.981 29.3537L53.9001 24.9476L53.6757 24.7365L53.9001 24.4782L27.7323 1.09363L27.5078 1.30248L27.2834 1.09363L1.08862 24.4782Z" stroke="#003376" stroke-width="2.5" stroke-linecap="round" stroke-linejoin="round"/>
</g>
<defs>
<clipPath id="clip0_227_49">
<rect width="55" height="54.0678" fill="white"/>
</clipPath>
</defs>
</svg>
