<svg width="58" height="58" viewBox="0 0 58 58" fill="none" xmlns="http://www.w3.org/2000/svg">
<path d="M37.5183 26.4801L46.0894 26.3635C47.3844 26.3448 49.6302 27.6695 50.382 28.6957L54.7752 34.7711C56.1148 36.653 56.8422 38.899 56.8595 41.2057V48.0578C56.8534 48.6781 56.6032 49.2714 56.1627 49.7101C55.7222 50.1488 55.1265 50.3979 54.5036 50.404H49.4148" stroke="#003376" stroke-width="2" stroke-linecap="round" stroke-linejoin="round"/>
<path d="M38.8861 50.4156H21.9172" stroke="#003376" stroke-width="2" stroke-linecap="round" stroke-linejoin="round"/>
<path d="M10.1214 50.4156H6.63211C6.01163 50.4059 5.41951 50.1552 4.98203 49.7169C4.54454 49.2785 4.29631 48.6874 4.29028 48.0694V38.1854" stroke="#003376" stroke-width="2" stroke-linecap="round" stroke-linejoin="round"/>
<path d="M44.1482 46.3645C45.1908 46.3645 46.2099 46.6724 47.0768 47.2493C47.9437 47.8261 48.6194 48.646 49.0183 49.6053C49.4173 50.5646 49.5217 51.6202 49.3183 52.6385C49.1149 53.6569 48.6129 54.5923 47.8756 55.3265C47.1384 56.0607 46.1991 56.5607 45.1766 56.7633C44.154 56.9659 43.0941 56.8619 42.1309 56.4646C41.1676 56.0672 40.3443 55.3943 39.7651 54.531C39.1859 53.6677 38.8767 52.6527 38.8767 51.6143C38.8767 50.222 39.4321 48.8867 40.4207 47.9022C41.4093 46.9176 42.7501 46.3645 44.1482 46.3645V46.3645Z" stroke="#003376" stroke-width="2" stroke-linecap="round" stroke-linejoin="round"/>
<path d="M15.6364 46.3645C16.679 46.3645 17.6982 46.6724 18.5651 47.2493C19.432 47.8261 20.1076 48.646 20.5066 49.6053C20.9056 50.5646 21.01 51.6202 20.8066 52.6385C20.6032 53.6569 20.1012 54.5923 19.3639 55.3265C18.6267 56.0607 17.6874 56.5607 16.6649 56.7633C15.6423 56.9659 14.5824 56.8619 13.6191 56.4646C12.6559 56.0672 11.8326 55.3943 11.2534 54.531C10.6741 53.6677 10.365 52.6527 10.365 51.6143C10.365 50.222 10.9204 48.8867 11.909 47.9022C12.8975 46.9176 14.2384 46.3645 15.6364 46.3645V46.3645Z" stroke="#003376" stroke-width="2" stroke-linecap="round" stroke-linejoin="round"/>
<path d="M37.5183 21.5614V37.4205C37.5081 38.0396 37.2566 38.6304 36.817 39.0682C36.3774 39.506 35.7841 39.7565 35.1625 39.7667H6.56644C5.94373 39.7606 5.34827 39.5114 4.90815 39.0727C4.46803 38.6339 4.21838 38.0407 4.21289 37.4205V21.5614" stroke="#003376" stroke-width="2" stroke-linecap="round" stroke-linejoin="round"/>
<path d="M56.7355 39.4845H45.8811C45.2599 39.4772 44.6664 39.2272 44.2284 38.7884C43.7904 38.3496 43.5429 37.7571 43.5393 37.1383V26.592" stroke="#003376" stroke-width="2" stroke-linecap="round" stroke-linejoin="round"/>
<path d="M15.6362 50.5112C15.8554 50.5112 16.0697 50.576 16.2519 50.6973C16.4341 50.8186 16.5761 50.9911 16.6598 51.1928C16.7436 51.3945 16.7654 51.6164 16.7225 51.8305C16.6795 52.0445 16.5738 52.241 16.4187 52.3952C16.2635 52.5494 16.0659 52.6543 15.8509 52.6966C15.6359 52.7389 15.4131 52.7167 15.2107 52.6329C15.0084 52.549 14.8355 52.4073 14.7141 52.2256C14.5927 52.0438 14.5281 51.8303 14.5286 51.612C14.5286 51.4673 14.5572 51.324 14.6129 51.1903C14.6686 51.0566 14.7503 50.9351 14.8531 50.8328C14.956 50.7306 15.0782 50.6495 15.2125 50.5944C15.3469 50.5392 15.4909 50.5109 15.6362 50.5112V50.5112ZM44.148 50.5112C44.3672 50.5112 44.5814 50.576 44.7636 50.6973C44.9458 50.8186 45.0878 50.9911 45.1716 51.1928C45.2553 51.3945 45.2771 51.6164 45.2342 51.8305C45.1913 52.0445 45.0855 52.241 44.9304 52.3952C44.7753 52.5494 44.5777 52.6543 44.3626 52.6966C44.1476 52.7389 43.9248 52.7167 43.7225 52.6329C43.5201 52.549 43.3473 52.4073 43.2258 52.2256C43.1044 52.0438 43.0398 51.8303 43.0403 51.612C43.0403 51.4673 43.069 51.324 43.1247 51.1903C43.1804 51.0566 43.262 50.9351 43.3649 50.8328C43.4678 50.7306 43.5899 50.6495 43.7243 50.5944C43.8586 50.5392 44.0026 50.5109 44.148 50.5112V50.5112Z" stroke="#003376" stroke-width="2" stroke-linecap="round" stroke-linejoin="round"/>
<path d="M25.1489 20.5842H16.8963C16.576 20.5848 16.269 20.7118 16.0425 20.9374C15.816 21.1629 15.6885 21.4687 15.6879 21.7876V30.0064C15.6885 30.3254 15.816 30.6311 16.0425 30.8567C16.269 31.0822 16.576 31.2092 16.8963 31.2098H25.1489C25.4692 31.2092 25.7762 31.0822 26.0027 30.8567C26.2291 30.6311 26.3567 30.3254 26.3573 30.0064V21.7876C26.3567 21.4687 26.2291 21.1629 26.0027 20.9374C25.7762 20.7118 25.4692 20.5848 25.1489 20.5842V20.5842ZM20.9758 25.3583L21.0366 30.9789L20.9758 25.3583ZM26.0505 25.1904L15.9806 25.2487L26.0505 25.1904ZM36.8346 13.6459V1.84017H31.3524V8.7412L36.8346 13.6459ZM1.14282 18.2753L1.31846 18.4642L1.14282 18.6182L4.08883 22.4173L21.0039 7.72436L37.9189 22.4173L40.8649 18.6182L40.6892 18.4642L40.8649 18.2753L21.1795 1.1405L21.0039 1.29441L20.8282 1.1405L1.14282 18.2753Z" stroke="#003376" stroke-width="2" stroke-linecap="round" stroke-linejoin="round"/>
</svg>
