<svg width="53" height="52" viewBox="0 0 53 52" fill="none" xmlns="http://www.w3.org/2000/svg">
<path d="M30.4014 19.6224L49.5326 23.4226C51.0744 23.7483 52.1167 25.0513 52.1167 26.593V48.7426C52.1167 50.545 50.6618 51.9999 48.8594 51.9999H29.3157C29.9237 51.9999 30.4014 51.5222 30.4014 50.9142V49.8284H48.8594C49.4457 49.8284 49.9452 49.3507 49.9452 48.7426V26.593C49.9452 26.0936 49.5977 25.6376 49.0983 25.529L30.4014 21.8374V19.6224Z" fill="#003376"/>
<path d="M42.3448 30.2847C42.9529 30.2847 43.4306 30.7624 43.4306 31.3704C43.4306 31.9785 42.9529 32.4562 42.3448 32.4562H38.0018C37.3938 32.4562 36.916 31.9785 36.916 31.3704C36.916 30.7624 37.3938 30.2847 38.0018 30.2847H42.3448Z" fill="#003376"/>
<path d="M42.3448 36.7992C42.9529 36.7992 43.4306 37.2769 43.4306 37.885C43.4306 38.493 42.9529 38.9707 42.3448 38.9707H38.0018C37.3938 38.9707 36.916 38.493 36.916 37.885C36.916 37.2769 37.3938 36.7992 38.0018 36.7992H42.3448Z" fill="#003376"/>
<path d="M42.3448 43.3137C42.9529 43.3137 43.4306 43.7915 43.4306 44.3995C43.4306 45.0075 42.9529 45.4853 42.3448 45.4853H38.0018C37.3938 45.4853 36.916 45.0075 36.916 44.3995C36.916 43.7915 37.3938 43.3137 38.0018 43.3137H42.3448Z" fill="#003376"/>
<path d="M30.4014 50.9141C30.4014 51.5221 29.9237 51.9998 29.3156 51.9998C28.7076 51.9998 28.2299 51.5221 28.2299 50.9141V49.8283V20.5127C28.2299 20.187 28.3819 19.8829 28.6207 19.6658C28.8813 19.4703 29.207 19.3835 29.5328 19.4486L30.4014 19.6224V21.8373V49.8283V50.9141Z" fill="#003376"/>
<path d="M28.2299 49.8284V50.9141C28.2299 51.5222 28.7076 51.9999 29.3156 51.9999H20.6295C21.2375 51.9999 21.7153 51.5222 21.7153 50.9141V49.8284H28.2299Z" fill="#003376"/>
<path d="M22.801 10.741C23.409 10.741 23.8868 11.2187 23.8868 11.8267C23.8868 12.4348 23.409 12.9125 22.801 12.9125H18.458C17.8499 12.9125 17.3722 12.4348 17.3722 11.8267C17.3722 11.2187 17.8499 10.741 18.458 10.741H22.801Z" fill="#003376"/>
<path d="M23.8868 18.3414C23.8868 18.9494 23.409 19.4271 22.801 19.4271H18.458C17.8499 19.4271 17.3722 18.9494 17.3722 18.3414C17.3722 17.7334 17.8499 17.2556 18.458 17.2556H22.801C23.409 17.2556 23.8868 17.7334 23.8868 18.3414Z" fill="#003376"/>
<path d="M22.801 23.7701C23.409 23.7701 23.8868 24.2479 23.8868 24.8559C23.8868 25.4639 23.409 25.9417 22.801 25.9417H18.458C17.8499 25.9417 17.3722 25.4639 17.3722 24.8559C17.3722 24.2479 17.8499 23.7701 18.458 23.7701H22.801Z" fill="#003376"/>
<path d="M22.801 30.2847C23.409 30.2847 23.8868 30.7624 23.8868 31.3704C23.8868 31.9785 23.409 32.4562 22.801 32.4562H18.458C17.8499 32.4562 17.3722 31.9785 17.3722 31.3704C17.3722 30.7624 17.8499 30.2847 18.458 30.2847H22.801Z" fill="#003376"/>
<path d="M13.0291 31.3704C13.0291 31.9785 12.5514 32.4562 11.9433 32.4562H7.60029C6.99226 32.4562 6.51453 31.9785 6.51453 31.3704C6.51453 30.7624 6.99226 30.2847 7.60029 30.2847H11.9433C12.5514 30.2847 13.0291 30.7624 13.0291 31.3704Z" fill="#003376"/>
<path d="M11.9433 10.741C12.5514 10.741 13.0291 11.2187 13.0291 11.8267C13.0291 12.4348 12.5514 12.9125 11.9433 12.9125H7.60029C6.99226 12.9125 6.51453 12.4348 6.51453 11.8267C6.51453 11.2187 6.99226 10.741 7.60029 10.741H11.9433Z" fill="#003376"/>
<path d="M11.9433 17.2556C12.5514 17.2556 13.0291 17.7334 13.0291 18.3414C13.0291 18.9494 12.5514 19.4271 11.9433 19.4271H7.60029C6.99226 19.4271 6.51453 18.9494 6.51453 18.3414C6.51453 17.7334 6.99226 17.2556 7.60029 17.2556H11.9433Z" fill="#003376"/>
<path d="M11.9433 23.7701C12.5514 23.7701 13.0291 24.2479 13.0291 24.8559C13.0291 25.4639 12.5514 25.9417 11.9433 25.9417H7.60029C6.99226 25.9417 6.51453 25.4639 6.51453 24.8559C6.51453 24.2479 6.99226 23.7701 7.60029 23.7701H11.9433Z" fill="#003376"/>
<path d="M19.5438 40.0565C19.5438 39.4485 19.0443 38.9707 18.458 38.9707H11.9434C11.3354 38.9707 10.8577 39.4485 10.8577 40.0565V49.8284H8.68616V40.0565C8.68616 38.2541 10.1411 36.7992 11.9434 36.7992H18.458C20.2604 36.7992 21.7153 38.2541 21.7153 40.0565V49.8284H19.5438V40.0565Z" fill="#003376"/>
<path d="M10.8577 49.8284H19.5438H21.7153V50.9141C21.7153 51.5222 21.2376 51.9999 20.6296 51.9999H9.77192C9.16389 51.9999 8.68616 51.5222 8.68616 50.9141V49.8284H10.8577Z" fill="#003376"/>
<path d="M3.80017 0.317546L27.6653 3.944C29.2505 4.20458 30.4014 5.55093 30.4014 7.15786V19.6224L29.5328 19.4487C29.2071 19.3836 28.8813 19.4704 28.6207 19.6659C28.3819 19.883 28.2299 20.187 28.2299 20.5128V7.15786C28.2299 6.61498 27.839 6.15896 27.3178 6.07209L3.45273 2.46736C3.38758 2.44564 3.32244 2.44564 3.25729 2.44564C2.99671 2.44564 2.75784 2.5325 2.5624 2.70623C2.30182 2.92338 2.17153 3.20568 2.17153 3.53141V48.7426C2.17153 49.3506 2.67098 49.8284 3.25729 49.8284H8.68611V50.9141C8.68611 51.5222 9.16385 51.9999 9.77188 51.9999H3.25729C1.45492 51.9999 0 50.545 0 48.7426V3.53141C0 2.57593 0.41259 1.66389 1.15091 1.05587C1.88923 0.426122 2.8447 0.165539 3.80017 0.317546Z" fill="#003376"/>
</svg>
