<svg width="57" height="58" viewBox="0 0 57 58" fill="none" xmlns="http://www.w3.org/2000/svg">
<path d="M50.9098 45.6237L50.761 29.3908L51.8078 30.3022L55.8694 25.7523L55.6368 25.5343L55.8694 25.27L50.8749 20.8222L50.9401 1.64652H43.3868L43.2332 14.0299L28.743 1.12939L28.5104 1.34506L28.2778 1.12939L1.12817 25.2793L1.37243 25.5436L1.12817 25.7616L5.1898 30.3114L6.1738 29.4557L6.04353 51.4675C6.05082 52.3263 6.39628 53.1478 7.00547 53.7551C7.61465 54.3624 8.43879 54.7068 9.30028 54.714H47.36" stroke="#003376" stroke-width="2" stroke-linecap="round" stroke-linejoin="round"/>
<path d="M41.4701 44.1209L40.2023 45.3847C39.9818 45.607 39.8582 45.907 39.8582 46.2196C39.8582 46.5322 39.9818 46.8321 40.2023 47.0544L49.7027 56.5274C49.9269 56.7457 50.2279 56.8679 50.5413 56.8679C50.8547 56.8679 51.1557 56.7457 51.3799 56.5274L55.5206 52.3996C55.7407 52.1767 55.864 51.8764 55.864 51.5637C55.864 51.2509 55.7407 50.9506 55.5206 50.7277L46.0249 41.257C45.8022 41.0366 45.5012 40.913 45.1874 40.913C44.8737 40.913 44.5726 41.0366 44.35 41.257L43.0822 42.5208L41.4771 44.1209H41.4701Z" stroke="#003376" stroke-width="2" stroke-linecap="round" stroke-linejoin="round"/>
<path d="M16.8442 38.6504L14.3668 41.1178C14.1545 41.3303 14.0354 41.618 14.0354 41.9178C14.0354 42.2177 14.1545 42.5053 14.3668 42.7179L20.1591 48.3878C20.3081 48.5649 20.5079 48.6922 20.7316 48.7527C20.9554 48.8133 21.1923 48.8041 21.4107 48.7264L39.7391 40.7537L42.2724 43.3208" stroke="#003376" stroke-width="2" stroke-linecap="round" stroke-linejoin="round"/>
<path d="M14.3878 33.1451L33.2304 14.3614C33.4302 14.1654 33.6992 14.0555 33.9795 14.0555C34.2597 14.0555 34.5288 14.1654 34.7285 14.3614L40.8652 20.4789C41.0623 20.6777 41.1729 20.946 41.1729 21.2256C41.1729 21.5052 41.0623 21.7735 40.8652 21.9723L22.0226 40.756C21.8234 40.9532 21.5542 41.0638 21.2735 41.0638C20.9929 41.0638 20.7236 40.9532 20.5245 40.756L17.4562 37.6973L14.3878 34.6386C14.1907 34.4397 14.0801 34.1714 14.0801 33.8919C14.0801 33.6123 14.1907 33.344 14.3878 33.1451V33.1451Z" stroke="#003376" stroke-width="2" stroke-linecap="round" stroke-linejoin="round"/>
</svg>
