<svg width="51" height="51" viewBox="0 0 51 51" fill="none" xmlns="http://www.w3.org/2000/svg">
<g clip-path="url(#clip0_227_53)">
<path d="M41.8593 38.7547C46.8997 38.7547 51 34.6543 51 29.6139C51 26.2035 49.0701 23.0767 46.0981 21.5148C46.6433 20.3258 46.9277 19.0285 46.9277 17.7067C46.9277 12.6667 42.8274 8.56641 37.7874 8.56641C35.5777 8.56641 33.501 9.34694 31.875 10.7306V5.95672C32.3295 5.86411 32.6719 5.46217 32.6719 4.98047V0.996094C32.6719 0.445908 32.226 0 31.6758 0H0.996094C0.445908 0 0 0.445908 0 0.996094V4.98047C0 5.46217 0.342407 5.86411 0.796875 5.95672V50.0039C0.796875 50.5541 1.24278 51 1.79297 51H40.8363C41.1313 51 41.4107 50.8697 41.6001 50.6436C42.213 49.9117 42.5507 48.9829 42.5507 48.0281C42.5507 45.8849 40.8869 44.1238 38.7835 43.9659V38.2224C39.7655 38.5726 40.8072 38.7547 41.8593 38.7547ZM37.7874 10.5586C41.7289 10.5586 44.9355 13.7652 44.9355 17.7071C44.9355 19.0375 44.5674 20.3359 43.8709 21.4619C43.7141 21.7152 43.6787 22.0257 43.7752 22.3078C43.8713 22.5899 44.0888 22.814 44.3682 22.9187C47.1432 23.9588 49.0078 26.6498 49.0078 29.6139C49.0078 33.5555 45.8012 36.7625 41.8593 36.7625C40.7916 36.7625 39.7391 36.5228 38.7835 36.0675V32.6863L43.3048 28.1646C43.6939 27.7755 43.6939 27.1447 43.3048 26.7556C42.9161 26.3669 42.2853 26.3669 41.8962 26.7556L38.7835 29.8688V27.493C38.7835 27.4926 38.7835 27.4922 38.7835 27.4918V20.3538C38.7835 19.8036 38.3372 19.3577 37.7874 19.3577C37.2372 19.3577 36.7913 19.8036 36.7913 20.3538V25.0876L35.9672 24.2634C35.5781 23.8747 34.9477 23.8747 34.5582 24.2634C34.1695 24.6525 34.1695 25.2833 34.5582 25.6724L36.7913 27.905V32.273V32.2742V36.0675C35.8353 36.5228 34.7827 36.7625 33.715 36.7625C33.0882 36.7625 32.4719 36.6815 31.875 36.5228V13.6881C33.2108 11.7236 35.4002 10.5586 37.7874 10.5586ZM36.7913 43.0861C35.78 41.9651 34.3236 41.2881 32.7423 41.2881C32.4485 41.2881 32.159 41.3122 31.875 41.3577V38.5671C32.4773 38.6905 33.0921 38.7547 33.715 38.7547C34.7676 38.7547 35.8088 38.5726 36.7913 38.2224V43.0861ZM2.78906 5.97656H11.8204C12.3702 5.97656 12.8165 5.53065 12.8165 4.98047C12.8165 4.43028 12.3702 3.98438 11.8204 3.98438H1.99219V1.99219H30.6797V3.98438H20.7849C20.2351 3.98438 19.7888 4.43028 19.7888 4.98047C19.7888 5.53065 20.2351 5.97656 20.7849 5.97656H29.8828V42.0986C29.135 42.5593 28.4988 43.1997 28.042 43.976C27.9914 43.9814 27.9408 43.9884 27.8906 43.9958V39.0469C27.8906 38.4967 27.4447 38.0508 26.8945 38.0508H22.5117C21.9615 38.0508 21.5156 38.4967 21.5156 39.0469V44.625C21.5156 45.1752 21.9615 45.6211 22.5117 45.6211H25.1914C24.6957 46.2962 24.402 47.1281 24.402 48.0281C24.402 48.3604 24.4436 48.6891 24.5226 49.0078H2.78906V5.97656ZM25.8984 43.6289H23.5078V40.043H25.8984V43.6289ZM40.5585 48.0281C40.5585 48.3712 40.4733 48.7082 40.3134 49.0078H26.6393C26.4798 48.7082 26.3941 48.3712 26.3941 48.0281C26.3941 46.8798 27.3284 45.9456 28.4766 45.9456C28.5182 45.9456 28.5599 45.9472 28.6007 45.9495C29.0178 45.9732 29.4038 45.7367 29.5711 45.3546C30.1229 44.0947 31.3676 43.2803 32.7423 43.2803C34.238 43.2803 35.5582 44.234 36.0279 45.6538C36.1216 45.9359 36.336 46.1619 36.6131 46.2693C36.8901 46.3771 37.201 46.3553 37.4605 46.2098C37.7695 46.037 38.1204 45.9456 38.4761 45.9456C39.6243 45.9456 40.5585 46.8798 40.5585 48.0281Z" fill="#003376"/>
<path d="M10.1602 38.0508H5.77734C5.22716 38.0508 4.78125 38.4967 4.78125 39.0469V44.625C4.78125 45.1752 5.22716 45.6211 5.77734 45.6211H10.1602C10.7103 45.6211 11.1562 45.1752 11.1562 44.625V39.0469C11.1562 38.4967 10.7103 38.0508 10.1602 38.0508ZM9.16406 43.6289H6.77344V40.043H9.16406V43.6289Z" fill="#003376"/>
<path d="M18.5273 38.0508H14.1445C13.5943 38.0508 13.1484 38.4967 13.1484 39.0469V44.625C13.1484 45.1752 13.5943 45.6211 14.1445 45.6211H18.5273C19.0775 45.6211 19.5234 45.1752 19.5234 44.625V39.0469C19.5234 38.4967 19.0775 38.0508 18.5273 38.0508ZM17.5312 43.6289H15.1406V40.043H17.5312V43.6289Z" fill="#003376"/>
<path d="M10.1602 28.4883H5.77734C5.22716 28.4883 4.78125 28.9342 4.78125 29.4844V35.0625C4.78125 35.6127 5.22716 36.0586 5.77734 36.0586H10.1602C10.7103 36.0586 11.1562 35.6127 11.1562 35.0625V29.4844C11.1562 28.9342 10.7103 28.4883 10.1602 28.4883ZM9.16406 34.0664H6.77344V30.4805H9.16406V34.0664Z" fill="#003376"/>
<path d="M18.5273 28.4883H14.1445C13.5943 28.4883 13.1484 28.9342 13.1484 29.4844V35.0625C13.1484 35.6127 13.5943 36.0586 14.1445 36.0586H18.5273C19.0775 36.0586 19.5234 35.6127 19.5234 35.0625V29.4844C19.5234 28.9342 19.0775 28.4883 18.5273 28.4883ZM17.5312 34.0664H15.1406V30.4805H17.5312V34.0664Z" fill="#003376"/>
<path d="M22.5117 36.0586H26.8945C27.4447 36.0586 27.8906 35.6127 27.8906 35.0625V29.4844C27.8906 28.9342 27.4447 28.4883 26.8945 28.4883H22.5117C21.9615 28.4883 21.5156 28.9342 21.5156 29.4844V35.0625C21.5156 35.6127 21.9615 36.0586 22.5117 36.0586ZM23.5078 30.4805H25.8984V34.0664H23.5078V30.4805Z" fill="#003376"/>
<path d="M10.1602 18.9258H5.77734C5.22716 18.9258 4.78125 19.3717 4.78125 19.9219V25.5C4.78125 26.0502 5.22716 26.4961 5.77734 26.4961H10.1602C10.7103 26.4961 11.1562 26.0502 11.1562 25.5V19.9219C11.1562 19.3717 10.7103 18.9258 10.1602 18.9258ZM9.16406 24.5039H6.77344V20.918H9.16406V24.5039Z" fill="#003376"/>
<path d="M18.5273 18.9258H14.1445C13.5943 18.9258 13.1484 19.3717 13.1484 19.9219V25.5C13.1484 26.0502 13.5943 26.4961 14.1445 26.4961H18.5273C19.0775 26.4961 19.5234 26.0502 19.5234 25.5V19.9219C19.5234 19.3717 19.0775 18.9258 18.5273 18.9258ZM17.5312 24.5039H15.1406V20.918H17.5312V24.5039Z" fill="#003376"/>
<path d="M22.5117 26.4961H26.8945C27.4447 26.4961 27.8906 26.0502 27.8906 25.5V19.9219C27.8906 19.3717 27.4447 18.9258 26.8945 18.9258H22.5117C21.9615 18.9258 21.5156 19.3717 21.5156 19.9219V25.5C21.5156 26.0502 21.9615 26.4961 22.5117 26.4961ZM23.5078 20.918H25.8984V24.5039H23.5078V20.918Z" fill="#003376"/>
<path d="M10.1602 9.36328H5.77734C5.22716 9.36328 4.78125 9.80919 4.78125 10.3594V15.9375C4.78125 16.4877 5.22716 16.9336 5.77734 16.9336H10.1602C10.7103 16.9336 11.1562 16.4877 11.1562 15.9375V10.3594C11.1562 9.80919 10.7103 9.36328 10.1602 9.36328ZM9.16406 14.9414H6.77344V11.3555H9.16406V14.9414Z" fill="#003376"/>
<path d="M18.5273 9.36328H14.1445C13.5943 9.36328 13.1484 9.80919 13.1484 10.3594V15.9375C13.1484 16.4877 13.5943 16.9336 14.1445 16.9336H18.5273C19.0775 16.9336 19.5234 16.4877 19.5234 15.9375V10.3594C19.5234 9.80919 19.0775 9.36328 18.5273 9.36328ZM17.5312 14.9414H15.1406V11.3555H17.5312V14.9414Z" fill="#003376"/>
<path d="M22.5117 16.9336H26.8945C27.4447 16.9336 27.8906 16.4877 27.8906 15.9375V10.3594C27.8906 9.80919 27.4447 9.36328 26.8945 9.36328H22.5117C21.9615 9.36328 21.5156 9.80919 21.5156 10.3594V15.9375C21.5156 16.4877 21.9615 16.9336 22.5117 16.9336ZM23.5078 11.3555H25.8984V14.9414H23.5078V11.3555Z" fill="#003376"/>
<path d="M16.3032 5.97656C16.5651 5.97656 16.8219 5.86995 17.0071 5.68474C17.1923 5.49953 17.2993 5.24233 17.2993 4.98047C17.2993 4.71861 17.1927 4.46141 17.0071 4.2762C16.8219 4.09099 16.5651 3.98438 16.3032 3.98438C16.0398 3.98438 15.7842 4.09099 15.599 4.2762C15.4126 4.46141 15.3071 4.71861 15.3071 4.98047C15.3071 5.24233 15.4126 5.49953 15.599 5.68474C15.7842 5.86995 16.0398 5.97656 16.3032 5.97656Z" fill="#003376"/>
</g>
<defs>
<clipPath id="clip0_227_53">
<rect width="51" height="51" fill="white"/>
</clipPath>
</defs>
</svg>
