<svg width="23" height="23" viewBox="0 0 23 23" fill="none" xmlns="http://www.w3.org/2000/svg">
<g clip-path="url(#clip0_102_2594)">
<path d="M21.9878 13.1294C21.9878 12.7707 21.697 12.48 21.3384 12.48H20.0386V3.62608C20.0386 1.88691 18.6236 0.471985 16.8843 0.471985C15.145 0.471985 13.73 1.88691 13.73 3.62608V4.80988C13.73 5.1685 14.0208 5.45927 14.3795 5.45927C14.7381 5.45927 15.0289 5.1685 15.0289 4.80988V3.62608C15.0289 2.60304 15.8612 1.77075 16.8843 1.77075C17.9074 1.77075 18.7398 2.60304 18.7398 3.62608V12.4799H1.42872C1.07008 12.4799 0.779297 12.7707 0.779297 13.1293C0.779297 16.0601 2.63307 18.5658 5.22962 19.5364C4.73014 20.0614 4.42121 20.7814 4.42121 21.5749C4.42121 21.9335 4.71199 22.2243 5.07063 22.2243C5.42927 22.2243 5.72006 21.9335 5.72006 21.5749C5.72006 20.6882 6.39667 19.9668 7.22841 19.9668C7.25896 19.9668 15.5082 19.9668 15.5387 19.9668C16.3705 19.9668 17.0471 20.6882 17.0471 21.5749C17.0471 21.9335 17.3379 22.2243 17.6966 22.2243C18.0552 22.2243 18.346 21.9335 18.346 21.5749C18.346 20.7814 18.037 20.0615 17.5376 19.5364C20.1341 18.5658 21.9878 16.0601 21.9878 13.1294ZM15.1499 18.6681H7.61726C4.78257 18.6681 2.43844 16.528 2.116 13.7787H20.6511C20.3287 16.528 17.9845 18.6681 15.1499 18.6681Z" fill="#696969"/>
<path d="M14.3799 6.586C14.0213 6.586 13.7305 6.87677 13.7305 7.23538V7.79818C13.7305 8.1568 14.0213 8.44757 14.3799 8.44757C14.7385 8.44757 15.0293 8.1568 15.0293 7.79818V7.23538C15.0293 6.87672 14.7385 6.586 14.3799 6.586Z" fill="#696969"/>
<path d="M14.3799 9.70312C14.0213 9.70312 13.7305 9.99389 13.7305 10.3525V10.9153C13.7305 11.2739 14.0213 11.5647 14.3799 11.5647C14.7385 11.5647 15.0293 11.2739 15.0293 10.9153V10.3525C15.0293 9.99385 14.7385 9.70312 14.3799 9.70312Z" fill="#696969"/>
</g>
<defs>
<clipPath id="clip0_102_2594">
<rect width="21.7536" height="21.7523" fill="white" transform="translate(0.506836 0.471985)"/>
</clipPath>
</defs>
</svg>
