<svg width="23" height="23" viewBox="0 0 23 23" fill="none" xmlns="http://www.w3.org/2000/svg">
<g clip-path="url(#clip0_102_2590)">
<path d="M20.5175 10.346V5.50193C20.5175 4.43399 19.6486 3.56512 18.5806 3.56512H4.73748C3.66947 3.56512 2.80055 4.43399 2.80055 5.50193V10.346C1.63827 10.6677 0.782227 11.7341 0.782227 12.9973V16.6779C0.782227 17.0345 1.0714 17.3236 1.42804 17.3236H2.80055V18.4853C2.80055 18.842 3.08973 19.1311 3.44637 19.1311C3.80301 19.1311 4.09218 18.842 4.09218 18.4853V17.3236H19.2259V18.4853C19.2259 18.842 19.5151 19.1311 19.8717 19.1311C20.2284 19.1311 20.5175 18.842 20.5175 18.4853V17.3236H21.89C22.2467 17.3236 22.5359 17.0345 22.5359 16.6779V12.9973C22.5359 11.7341 21.6798 10.6677 20.5175 10.346ZM4.09218 5.50193C4.09218 5.14616 4.38169 4.85667 4.73748 4.85667H18.5806C18.9364 4.85667 19.2259 5.14616 19.2259 5.50193V10.2461H17.7127V8.9498C17.7127 7.82263 16.7957 6.90564 15.6685 6.90564H13.0576C12.5169 6.90564 12.025 7.11691 11.6591 7.46083C11.2931 7.11696 10.8012 6.90564 10.2606 6.90564H7.6497C6.52246 6.90564 5.60541 7.82267 5.60541 8.9498V10.2461H4.09218V5.50193ZM16.4211 8.9498V10.2461H12.3048V8.9498C12.3048 8.53476 12.6425 8.19718 13.0575 8.19718H15.6684C16.0835 8.19718 16.4211 8.53481 16.4211 8.9498ZM11.0132 8.9498V10.2461H6.89691V8.9498C6.89691 8.53476 7.2346 8.19718 7.64957 8.19718H10.2605C10.6755 8.19718 11.0132 8.53481 11.0132 8.9498ZM21.2442 16.0321H2.07385V12.9973C2.07385 12.1924 2.72867 11.5376 3.53359 11.5376H19.7845C20.5894 11.5376 21.2442 12.1924 21.2442 12.9973V16.0321Z" fill="#696969"/>
</g>
<defs>
<clipPath id="clip0_102_2590">
<rect width="21.7536" height="21.7523" fill="white" transform="translate(0.782227 0.471985)"/>
</clipPath>
</defs>
</svg>
