<svg width="10" height="6" viewBox="0 0 10 6" fill="none" xmlns="http://www.w3.org/2000/svg">
<path d="M0.159839 5.45958L0.487403 5.78942C0.590493 5.89243 0.727648 5.94918 0.874235 5.94918C1.02074 5.94918 1.15806 5.89243 1.26115 5.78942L4.99776 2.05265L8.73869 5.79357C8.84162 5.89658 8.97893 5.95325 9.12544 5.95325C9.27195 5.95325 9.40934 5.89658 9.51235 5.79357L9.84 5.46576C10.0533 5.25259 10.0533 4.90535 9.84 4.69218L5.38598 0.222143C5.28305 0.119216 5.1459 0.0466945 4.99809 0.0466945L4.99638 0.0466945C4.8498 0.0466945 4.71264 0.119297 4.60971 0.222143L0.159839 4.68007C0.0567489 4.78299 0.000162761 4.92429 1.44982e-07 5.0708C1.32167e-07 5.21739 0.0567488 5.35674 0.159839 5.45958Z" fill="white"/>
</svg>
